ISO-10303-21;
HEADER;
/* Generated by software containing ST-Developer
 * from STEP Tools, Inc. (www.steptools.com) 
 */

FILE_DESCRIPTION(
/* description */ (''),
/* implementation_level */ '2;1');

FILE_NAME(
/* name */ 'base.step',
/* time_stamp */ '2026-08-14T21:40:57+05:30',
/* author */ (''),
/* organization */ (''),
/* preprocessor_version */ 'ST-DEVELOPER v20.1',
/* originating_system */ 'Autodesk Translation Framework v15.8.0.0',
/* authorisation */ '');

FILE_SCHEMA (('AUTOMOTIVE_DESIGN { 1 0 10303 214 3 1 1 }'));
ENDSEC;

DATA;
#10=MECHANICAL_DESIGN_GEOMETRIC_PRESENTATION_REPRESENTATION('',(#13),#1275);
#11=SHAPE_REPRESENTATION_RELATIONSHIP('SRR','None',#1282,#12);
#12=ADVANCED_BREP_SHAPE_REPRESENTATION('',(#14),#1274);
#13=STYLED_ITEM('',(#1291),#14);
#14=MANIFOLD_SOLID_BREP('Body1',#560);
#15=FACE_BOUND('',#170,.T.);
#16=FACE_BOUND('',#173,.T.);
#17=FACE_BOUND('',#175,.T.);
#18=FACE_BOUND('',#189,.T.);
#19=FACE_BOUND('',#190,.T.);
#20=FACE_BOUND('',#191,.T.);
#21=PLANE('',#602);
#22=PLANE('',#605);
#23=PLANE('',#609);
#24=PLANE('',#612);
#25=PLANE('',#615);
#26=PLANE('',#624);
#27=PLANE('',#625);
#28=PLANE('',#626);
#29=PLANE('',#627);
#30=PLANE('',#628);
#31=PLANE('',#629);
#32=PLANE('',#630);
#33=PLANE('',#631);
#34=PLANE('',#632);
#35=PLANE('',#633);
#36=CONICAL_SURFACE('',#597,45.,0.785398163397448);
#37=CONICAL_SURFACE('',#600,38.5,0.785398163397449);
#38=LINE('',#1020,#76);
#39=LINE('',#1157,#77);
#40=LINE('',#1170,#78);
#41=LINE('',#1173,#79);
#42=LINE('',#1177,#80);
#43=LINE('',#1182,#81);
#44=LINE('',#1186,#82);
#45=LINE('',#1190,#83);
#46=LINE('',#1194,#84);
#47=LINE('',#1199,#85);
#48=LINE('',#1201,#86);
#49=LINE('',#1203,#87);
#50=LINE('',#1204,#88);
#51=LINE('',#1207,#89);
#52=LINE('',#1210,#90);
#53=LINE('',#1213,#91);
#54=LINE('',#1215,#92);
#55=LINE('',#1217,#93);
#56=LINE('',#1218,#94);
#57=LINE('',#1221,#95);
#58=LINE('',#1224,#96);
#59=LINE('',#1226,#97);
#60=LINE('',#1230,#98);
#61=LINE('',#1235,#99);
#62=LINE('',#1241,#100);
#63=LINE('',#1245,#101);
#64=LINE('',#1247,#102);
#65=LINE('',#1248,#103);
#66=LINE('',#1251,#104);
#67=LINE('',#1253,#105);
#68=LINE('',#1254,#106);
#69=LINE('',#1257,#107);
#70=LINE('',#1258,#108);
#71=LINE('',#1261,#109);
#72=LINE('',#1262,#110);
#73=LINE('',#1264,#111);
#74=LINE('',#1266,#112);
#75=LINE('',#1270,#113);
#76=VECTOR('',#650,7.5);
#77=VECTOR('',#671,36.);
#78=VECTOR('',#686,45.);
#79=VECTOR('',#691,40.);
#80=VECTOR('',#696,38.5);
#81=VECTOR('',#703,50.);
#82=VECTOR('',#706,10.);
#83=VECTOR('',#709,10.);
#84=VECTOR('',#712,10.);
#85=VECTOR('',#717,10.);
#86=VECTOR('',#718,10.);
#87=VECTOR('',#719,10.);
#88=VECTOR('',#720,10.);
#89=VECTOR('',#723,10.);
#90=VECTOR('',#726,10.);
#91=VECTOR('',#729,10.);
#92=VECTOR('',#730,10.);
#93=VECTOR('',#731,10.);
#94=VECTOR('',#732,10.);
#95=VECTOR('',#735,10.);
#96=VECTOR('',#738,10.);
#97=VECTOR('',#741,10.);
#98=VECTOR('',#746,10.);
#99=VECTOR('',#751,0.900000000000001);
#100=VECTOR('',#758,0.900000000000001);
#101=VECTOR('',#763,10.);
#102=VECTOR('',#764,10.);
#103=VECTOR('',#765,10.);
#104=VECTOR('',#768,10.);
#105=VECTOR('',#769,10.);
#106=VECTOR('',#770,10.);
#107=VECTOR('',#773,10.);
#108=VECTOR('',#774,10.);
#109=VECTOR('',#777,10.);
#110=VECTOR('',#778,10.);
#111=VECTOR('',#781,10.);
#112=VECTOR('',#784,10.);
#113=VECTOR('',#791,10.);
#114=CYLINDRICAL_SURFACE('',#580,7.5);
#115=CYLINDRICAL_SURFACE('',#589,36.);
#116=CYLINDRICAL_SURFACE('',#599,40.);
#117=CYLINDRICAL_SURFACE('',#604,50.);
#118=CYLINDRICAL_SURFACE('',#610,0.5);
#119=CYLINDRICAL_SURFACE('',#613,0.5);
#120=CYLINDRICAL_SURFACE('',#616,6.5);
#121=CYLINDRICAL_SURFACE('',#618,0.900000000000001);
#122=CYLINDRICAL_SURFACE('',#621,0.900000000000001);
#123=TOROIDAL_SURFACE('',#575,35.,5.);
#124=TOROIDAL_SURFACE('',#583,31.,5.);
#125=TOROIDAL_SURFACE('',#591,60.,20.);
#126=FACE_OUTER_BOUND('',#158,.T.);
#127=FACE_OUTER_BOUND('',#159,.T.);
#128=FACE_OUTER_BOUND('',#160,.T.);
#129=FACE_OUTER_BOUND('',#161,.T.);
#130=FACE_OUTER_BOUND('',#162,.T.);
#131=FACE_OUTER_BOUND('',#163,.T.);
#132=FACE_OUTER_BOUND('',#164,.T.);
#133=FACE_OUTER_BOUND('',#165,.T.);
#134=FACE_OUTER_BOUND('',#166,.T.);
#135=FACE_OUTER_BOUND('',#167,.T.);
#136=FACE_OUTER_BOUND('',#168,.T.);
#137=FACE_OUTER_BOUND('',#169,.T.);
#138=FACE_OUTER_BOUND('',#171,.T.);
#139=FACE_OUTER_BOUND('',#172,.T.);
#140=FACE_OUTER_BOUND('',#174,.T.);
#141=FACE_OUTER_BOUND('',#176,.T.);
#142=FACE_OUTER_BOUND('',#177,.T.);
#143=FACE_OUTER_BOUND('',#178,.T.);
#144=FACE_OUTER_BOUND('',#179,.T.);
#145=FACE_OUTER_BOUND('',#180,.T.);
#146=FACE_OUTER_BOUND('',#181,.T.);
#147=FACE_OUTER_BOUND('',#182,.T.);
#148=FACE_OUTER_BOUND('',#183,.T.);
#149=FACE_OUTER_BOUND('',#184,.T.);
#150=FACE_OUTER_BOUND('',#185,.T.);
#151=FACE_OUTER_BOUND('',#186,.T.);
#152=FACE_OUTER_BOUND('',#187,.T.);
#153=FACE_OUTER_BOUND('',#188,.T.);
#154=FACE_OUTER_BOUND('',#192,.T.);
#155=FACE_OUTER_BOUND('',#193,.T.);
#156=FACE_OUTER_BOUND('',#194,.T.);
#157=FACE_OUTER_BOUND('',#195,.T.);
#158=EDGE_LOOP('',(#367,#368,#369,#370,#371,#372,#373));
#159=EDGE_LOOP('',(#374,#375,#376,#377,#378,#379));
#160=EDGE_LOOP('',(#380,#381,#382,#383,#384,#385,#386));
#161=EDGE_LOOP('',(#387,#388,#389,#390));
#162=EDGE_LOOP('',(#391,#392,#393,#394,#395));
#163=EDGE_LOOP('',(#396,#397,#398,#399,#400,#401,#402));
#164=EDGE_LOOP('',(#403,#404,#405,#406,#407,#408,#409));
#165=EDGE_LOOP('',(#410,#411,#412,#413,#414,#415));
#166=EDGE_LOOP('',(#416,#417,#418,#419,#420));
#167=EDGE_LOOP('',(#421,#422,#423,#424,#425,#426,#427,#428));
#168=EDGE_LOOP('',(#429,#430,#431,#432));
#169=EDGE_LOOP('',(#433));
#170=EDGE_LOOP('',(#434));
#171=EDGE_LOOP('',(#435,#436,#437,#438));
#172=EDGE_LOOP('',(#439));
#173=EDGE_LOOP('',(#440,#441,#442,#443,#444,#445));
#174=EDGE_LOOP('',(#446));
#175=EDGE_LOOP('',(#447,#448,#449,#450));
#176=EDGE_LOOP('',(#451,#452,#453,#454));
#177=EDGE_LOOP('',(#455,#456,#457,#458,#459,#460));
#178=EDGE_LOOP('',(#461,#462,#463,#464));
#179=EDGE_LOOP('',(#465,#466,#467,#468));
#180=EDGE_LOOP('',(#469,#470,#471,#472));
#181=EDGE_LOOP('',(#473,#474,#475,#476));
#182=EDGE_LOOP('',(#477,#478,#479,#480));
#183=EDGE_LOOP('',(#481,#482,#483,#484));
#184=EDGE_LOOP('',(#485,#486,#487,#488));
#185=EDGE_LOOP('',(#489,#490,#491,#492));
#186=EDGE_LOOP('',(#493,#494,#495,#496));
#187=EDGE_LOOP('',(#497,#498,#499,#500));
#188=EDGE_LOOP('',(#501,#502,#503,#504));
#189=EDGE_LOOP('',(#505,#506,#507,#508,#509,#510));
#190=EDGE_LOOP('',(#511));
#191=EDGE_LOOP('',(#512));
#192=EDGE_LOOP('',(#513));
#193=EDGE_LOOP('',(#514));
#194=EDGE_LOOP('',(#515,#516,#517,#518,#519,#520));
#195=EDGE_LOOP('',(#521,#522,#523,#524));
#196=CIRCLE('',#574,1.);
#197=CIRCLE('',#576,35.);
#198=CIRCLE('',#577,5.);
#199=CIRCLE('',#578,40.);
#200=CIRCLE('',#579,40.);
#201=CIRCLE('',#581,1.);
#202=CIRCLE('',#582,0.999999999999996);
#203=CIRCLE('',#584,36.);
#204=CIRCLE('',#585,5.);
#205=CIRCLE('',#586,31.);
#206=CIRCLE('',#587,36.);
#207=CIRCLE('',#588,36.);
#208=CIRCLE('',#590,36.);
#209=CIRCLE('',#592,40.);
#210=CIRCLE('',#593,20.);
#211=CIRCLE('',#594,45.857864376269);
#212=CIRCLE('',#595,45.857864376269);
#213=CIRCLE('',#596,40.);
#214=CIRCLE('',#598,50.);
#215=CIRCLE('',#601,41.);
#216=CIRCLE('',#603,50.);
#217=CIRCLE('',#606,0.5);
#218=CIRCLE('',#607,0.5);
#219=CIRCLE('',#608,6.5);
#220=CIRCLE('',#611,0.5);
#221=CIRCLE('',#614,0.5);
#222=CIRCLE('',#617,6.5);
#223=CIRCLE('',#619,0.900000000000001);
#224=CIRCLE('',#620,0.900000000000001);
#225=CIRCLE('',#622,0.900000000000001);
#226=CIRCLE('',#623,0.900000000000001);
#227=B_SPLINE_CURVE_WITH_KNOTS('',3,(#899,#900,#901,#902,#903,#904,#905,
#906,#907,#908,#909,#910,#911,#912,#913,#914,#915,#916,#917,#918,#919,#920,
#921,#922,#923,#924,#925,#926,#927,#928,#929,#930,#931,#932,#933,#934,#935,
#936,#937,#938,#939,#940,#941,#942,#943,#944,#945,#946,#947),
 .UNSPECIFIED.,.F.,.F.,(4,3,3,3,3,3,3,3,3,3,3,3,3,3,3,3,4),(-0.00421783499514422,
2.68882138776405E-17,0.0506825494322503,0.0999199098224635,0.152060972479632,
0.188132496829678,0.239667150881922,0.247503255496552,0.283841768068001,
0.316859808116864,0.35946857257423,0.411133717158676,0.442395922603319,
0.485862227639518,0.536743200496394,0.585718413426706,0.58993277221172),
 .UNSPECIFIED.);
#228=B_SPLINE_CURVE_WITH_KNOTS('',3,(#949,#950,#951,#952,#953,#954),
 .UNSPECIFIED.,.F.,.F.,(4,1,1,4),(-0.8848681546844,-0.647398967048346,-0.323699483524173,
0.),.UNSPECIFIED.);
#229=B_SPLINE_CURVE_WITH_KNOTS('',3,(#958,#959,#960,#961,#962,#963,#964),
 .UNSPECIFIED.,.F.,.F.,(4,1,1,1,4),(0.,0.323699483524173,0.647398967048346,
0.971098450572518,1.13294856811482),.UNSPECIFIED.);
#230=B_SPLINE_CURVE_WITH_KNOTS('',3,(#965,#966,#967,#968,#969,#970,#971,
#972,#973,#974,#975,#976,#977,#978),.UNSPECIFIED.,.F.,.F.,(4,1,1,1,1,1,
1,1,1,1,1,4),(1.13294856811482,1.29479793409669,1.61849741762086,1.94219690114504,
2.3737962125106,2.58959586819338,2.80539552387616,3.23699483524173,3.5606943187659,
3.88439380229007,4.20809328581425,4.53179276933842),.UNSPECIFIED.);
#231=B_SPLINE_CURVE_WITH_KNOTS('',3,(#979,#980,#981,#982,#983,#984,#985,
#986,#987,#988,#989,#990,#991),.UNSPECIFIED.,.F.,.F.,(4,1,1,1,1,1,1,1,1,
1,4),(-4.53179276933842,-4.20809328581425,-3.88439380229007,-3.5606943187659,
-3.23699483524173,-2.80539552387616,-2.58959586819338,-2.3737962125106,
-1.94219690114504,-1.61849741762086,-1.38102924507556),.UNSPECIFIED.);
#232=B_SPLINE_CURVE_WITH_KNOTS('',3,(#1002,#1003,#1004,#1005,#1006,#1007,
#1008,#1009,#1010,#1011),.UNSPECIFIED.,.F.,.F.,(4,1,1,1,1,1,1,4),(0.,0.535875657305992,
1.07175131461198,1.60762697191798,2.14350262922397,2.67937828652996,3.21525394383595,
3.75112960114194),.UNSPECIFIED.);
#233=B_SPLINE_CURVE_WITH_KNOTS('',3,(#1013,#1014,#1015,#1016,#1017,#1018,
#1019),.UNSPECIFIED.,.F.,.F.,(4,1,1,1,4),(0.803544229962929,0.918349034742993,
1.14793629342874,1.37752355211449,1.60711081080024),.UNSPECIFIED.);
#234=B_SPLINE_CURVE_WITH_KNOTS('',3,(#1021,#1022,#1023,#1024,#1025,#1026),
 .UNSPECIFIED.,.F.,.F.,(4,1,1,4),(2.83836621328026E-16,0.459174517371496,
0.688761776057245,0.803644411041974),.UNSPECIFIED.);
#235=B_SPLINE_CURVE_WITH_KNOTS('',3,(#1080,#1081,#1082,#1083,#1084,#1085,
#1086,#1087,#1088,#1089),.UNSPECIFIED.,.F.,.F.,(4,1,1,1,1,1,1,4),(-3.75112960114194,
-3.21525394383595,-2.67937828652996,-2.14350262922397,-1.60762697191798,
-1.07175131461198,-0.535875657305992,0.),.UNSPECIFIED.);
#236=B_SPLINE_CURVE_WITH_KNOTS('',3,(#1136,#1137,#1138,#1139,#1140,#1141,
#1142,#1143,#1144),.UNSPECIFIED.,.F.,.F.,(4,1,1,1,1,1,4),(-1.60711081080024,
-1.37752355211449,-1.14793629342874,-0.918349034742993,-0.688761776057245,
-0.459174517371496,-2.83836621328026E-16),.UNSPECIFIED.);
#237=VERTEX_POINT('',#897);
#238=VERTEX_POINT('',#898);
#239=VERTEX_POINT('',#948);
#240=VERTEX_POINT('',#955);
#241=VERTEX_POINT('',#957);
#242=VERTEX_POINT('',#993);
#243=VERTEX_POINT('',#995);
#244=VERTEX_POINT('',#1000);
#245=VERTEX_POINT('',#1001);
#246=VERTEX_POINT('',#1012);
#247=VERTEX_POINT('',#1077);
#248=VERTEX_POINT('',#1079);
#249=VERTEX_POINT('',#1146);
#250=VERTEX_POINT('',#1148);
#251=VERTEX_POINT('',#1151);
#252=VERTEX_POINT('',#1155);
#253=VERTEX_POINT('',#1159);
#254=VERTEX_POINT('',#1160);
#255=VERTEX_POINT('',#1162);
#256=VERTEX_POINT('',#1164);
#257=VERTEX_POINT('',#1169);
#258=VERTEX_POINT('',#1175);
#259=VERTEX_POINT('',#1179);
#260=VERTEX_POINT('',#1184);
#261=VERTEX_POINT('',#1185);
#262=VERTEX_POINT('',#1187);
#263=VERTEX_POINT('',#1189);
#264=VERTEX_POINT('',#1191);
#265=VERTEX_POINT('',#1193);
#266=VERTEX_POINT('',#1197);
#267=VERTEX_POINT('',#1198);
#268=VERTEX_POINT('',#1200);
#269=VERTEX_POINT('',#1202);
#270=VERTEX_POINT('',#1206);
#271=VERTEX_POINT('',#1208);
#272=VERTEX_POINT('',#1212);
#273=VERTEX_POINT('',#1214);
#274=VERTEX_POINT('',#1216);
#275=VERTEX_POINT('',#1220);
#276=VERTEX_POINT('',#1222);
#277=VERTEX_POINT('',#1228);
#278=VERTEX_POINT('',#1232);
#279=VERTEX_POINT('',#1234);
#280=VERTEX_POINT('',#1238);
#281=VERTEX_POINT('',#1240);
#282=VERTEX_POINT('',#1244);
#283=VERTEX_POINT('',#1246);
#284=VERTEX_POINT('',#1250);
#285=VERTEX_POINT('',#1252);
#286=VERTEX_POINT('',#1256);
#287=VERTEX_POINT('',#1260);
#288=EDGE_CURVE('',#237,#238,#227,.T.);
#289=EDGE_CURVE('',#238,#239,#228,.T.);
#290=EDGE_CURVE('',#239,#240,#196,.T.);
#291=EDGE_CURVE('',#240,#241,#229,.T.);
#292=EDGE_CURVE('',#241,#240,#230,.T.);
#293=EDGE_CURVE('',#239,#237,#231,.T.);
#294=EDGE_CURVE('',#242,#242,#197,.T.);
#295=EDGE_CURVE('',#242,#243,#198,.T.);
#296=EDGE_CURVE('',#243,#238,#199,.T.);
#297=EDGE_CURVE('',#237,#243,#200,.T.);
#298=EDGE_CURVE('',#244,#245,#232,.T.);
#299=EDGE_CURVE('',#246,#244,#233,.T.);
#300=EDGE_CURVE('',#246,#241,#38,.T.);
#301=EDGE_CURVE('',#245,#246,#234,.T.);
#302=EDGE_CURVE('',#245,#247,#201,.T.);
#303=EDGE_CURVE('',#247,#248,#235,.T.);
#304=EDGE_CURVE('',#248,#244,#202,.T.);
#305=EDGE_CURVE('',#248,#247,#236,.T.);
#306=EDGE_CURVE('',#248,#249,#203,.T.);
#307=EDGE_CURVE('',#249,#250,#204,.T.);
#308=EDGE_CURVE('',#250,#250,#205,.T.);
#309=EDGE_CURVE('',#249,#251,#206,.T.);
#310=EDGE_CURVE('',#251,#247,#207,.T.);
#311=EDGE_CURVE('',#252,#252,#208,.T.);
#312=EDGE_CURVE('',#252,#251,#39,.T.);
#313=EDGE_CURVE('',#253,#254,#209,.T.);
#314=EDGE_CURVE('',#254,#255,#210,.T.);
#315=EDGE_CURVE('',#255,#256,#211,.T.);
#316=EDGE_CURVE('',#256,#255,#212,.T.);
#317=EDGE_CURVE('',#254,#253,#213,.T.);
#318=EDGE_CURVE('',#256,#257,#40,.T.);
#319=EDGE_CURVE('',#257,#257,#214,.T.);
#320=EDGE_CURVE('',#253,#243,#41,.T.);
#321=EDGE_CURVE('',#258,#258,#215,.T.);
#322=EDGE_CURVE('',#258,#252,#42,.T.);
#323=EDGE_CURVE('',#259,#259,#216,.T.);
#324=EDGE_CURVE('',#257,#259,#43,.T.);
#325=EDGE_CURVE('',#260,#261,#44,.T.);
#326=EDGE_CURVE('',#262,#261,#217,.T.);
#327=EDGE_CURVE('',#262,#263,#45,.T.);
#328=EDGE_CURVE('',#264,#263,#218,.T.);
#329=EDGE_CURVE('',#264,#265,#46,.T.);
#330=EDGE_CURVE('',#260,#265,#219,.T.);
#331=EDGE_CURVE('',#266,#267,#47,.T.);
#332=EDGE_CURVE('',#267,#268,#48,.T.);
#333=EDGE_CURVE('',#268,#269,#49,.T.);
#334=EDGE_CURVE('',#269,#266,#50,.T.);
#335=EDGE_CURVE('',#261,#270,#51,.T.);
#336=EDGE_CURVE('',#270,#271,#220,.T.);
#337=EDGE_CURVE('',#271,#262,#52,.T.);
#338=EDGE_CURVE('',#272,#260,#53,.T.);
#339=EDGE_CURVE('',#273,#272,#54,.T.);
#340=EDGE_CURVE('',#273,#274,#55,.T.);
#341=EDGE_CURVE('',#270,#274,#56,.T.);
#342=EDGE_CURVE('',#263,#275,#57,.T.);
#343=EDGE_CURVE('',#275,#276,#221,.T.);
#344=EDGE_CURVE('',#276,#264,#58,.T.);
#345=EDGE_CURVE('',#275,#271,#59,.T.);
#346=EDGE_CURVE('',#277,#272,#222,.T.);
#347=EDGE_CURVE('',#265,#277,#60,.T.);
#348=EDGE_CURVE('',#278,#278,#223,.T.);
#349=EDGE_CURVE('',#278,#279,#61,.T.);
#350=EDGE_CURVE('',#279,#279,#224,.T.);
#351=EDGE_CURVE('',#280,#280,#225,.T.);
#352=EDGE_CURVE('',#280,#281,#62,.T.);
#353=EDGE_CURVE('',#281,#281,#226,.T.);
#354=EDGE_CURVE('',#282,#273,#63,.T.);
#355=EDGE_CURVE('',#282,#283,#64,.T.);
#356=EDGE_CURVE('',#274,#283,#65,.T.);
#357=EDGE_CURVE('',#266,#284,#66,.T.);
#358=EDGE_CURVE('',#285,#284,#67,.T.);
#359=EDGE_CURVE('',#267,#285,#68,.T.);
#360=EDGE_CURVE('',#286,#285,#69,.T.);
#361=EDGE_CURVE('',#268,#286,#70,.T.);
#362=EDGE_CURVE('',#287,#286,#71,.T.);
#363=EDGE_CURVE('',#269,#287,#72,.T.);
#364=EDGE_CURVE('',#284,#287,#73,.T.);
#365=EDGE_CURVE('',#283,#276,#74,.T.);
#366=EDGE_CURVE('',#277,#282,#75,.T.);
#367=ORIENTED_EDGE('',*,*,#288,.T.);
#368=ORIENTED_EDGE('',*,*,#289,.T.);
#369=ORIENTED_EDGE('',*,*,#290,.T.);
#370=ORIENTED_EDGE('',*,*,#291,.T.);
#371=ORIENTED_EDGE('',*,*,#292,.T.);
#372=ORIENTED_EDGE('',*,*,#290,.F.);
#373=ORIENTED_EDGE('',*,*,#293,.T.);
#374=ORIENTED_EDGE('',*,*,#294,.T.);
#375=ORIENTED_EDGE('',*,*,#295,.T.);
#376=ORIENTED_EDGE('',*,*,#296,.T.);
#377=ORIENTED_EDGE('',*,*,#288,.F.);
#378=ORIENTED_EDGE('',*,*,#297,.T.);
#379=ORIENTED_EDGE('',*,*,#295,.F.);
#380=ORIENTED_EDGE('',*,*,#298,.F.);
#381=ORIENTED_EDGE('',*,*,#299,.F.);
#382=ORIENTED_EDGE('',*,*,#300,.T.);
#383=ORIENTED_EDGE('',*,*,#291,.F.);
#384=ORIENTED_EDGE('',*,*,#292,.F.);
#385=ORIENTED_EDGE('',*,*,#300,.F.);
#386=ORIENTED_EDGE('',*,*,#301,.F.);
#387=ORIENTED_EDGE('',*,*,#302,.T.);
#388=ORIENTED_EDGE('',*,*,#303,.T.);
#389=ORIENTED_EDGE('',*,*,#304,.T.);
#390=ORIENTED_EDGE('',*,*,#298,.T.);
#391=ORIENTED_EDGE('',*,*,#304,.F.);
#392=ORIENTED_EDGE('',*,*,#305,.T.);
#393=ORIENTED_EDGE('',*,*,#302,.F.);
#394=ORIENTED_EDGE('',*,*,#301,.T.);
#395=ORIENTED_EDGE('',*,*,#299,.T.);
#396=ORIENTED_EDGE('',*,*,#305,.F.);
#397=ORIENTED_EDGE('',*,*,#306,.T.);
#398=ORIENTED_EDGE('',*,*,#307,.T.);
#399=ORIENTED_EDGE('',*,*,#308,.T.);
#400=ORIENTED_EDGE('',*,*,#307,.F.);
#401=ORIENTED_EDGE('',*,*,#309,.T.);
#402=ORIENTED_EDGE('',*,*,#310,.T.);
#403=ORIENTED_EDGE('',*,*,#311,.F.);
#404=ORIENTED_EDGE('',*,*,#312,.T.);
#405=ORIENTED_EDGE('',*,*,#309,.F.);
#406=ORIENTED_EDGE('',*,*,#306,.F.);
#407=ORIENTED_EDGE('',*,*,#303,.F.);
#408=ORIENTED_EDGE('',*,*,#310,.F.);
#409=ORIENTED_EDGE('',*,*,#312,.F.);
#410=ORIENTED_EDGE('',*,*,#313,.T.);
#411=ORIENTED_EDGE('',*,*,#314,.T.);
#412=ORIENTED_EDGE('',*,*,#315,.T.);
#413=ORIENTED_EDGE('',*,*,#316,.T.);
#414=ORIENTED_EDGE('',*,*,#314,.F.);
#415=ORIENTED_EDGE('',*,*,#317,.T.);
#416=ORIENTED_EDGE('',*,*,#316,.F.);
#417=ORIENTED_EDGE('',*,*,#318,.T.);
#418=ORIENTED_EDGE('',*,*,#319,.T.);
#419=ORIENTED_EDGE('',*,*,#318,.F.);
#420=ORIENTED_EDGE('',*,*,#315,.F.);
#421=ORIENTED_EDGE('',*,*,#313,.F.);
#422=ORIENTED_EDGE('',*,*,#320,.T.);
#423=ORIENTED_EDGE('',*,*,#297,.F.);
#424=ORIENTED_EDGE('',*,*,#293,.F.);
#425=ORIENTED_EDGE('',*,*,#289,.F.);
#426=ORIENTED_EDGE('',*,*,#296,.F.);
#427=ORIENTED_EDGE('',*,*,#320,.F.);
#428=ORIENTED_EDGE('',*,*,#317,.F.);
#429=ORIENTED_EDGE('',*,*,#321,.T.);
#430=ORIENTED_EDGE('',*,*,#322,.T.);
#431=ORIENTED_EDGE('',*,*,#311,.T.);
#432=ORIENTED_EDGE('',*,*,#322,.F.);
#433=ORIENTED_EDGE('',*,*,#323,.T.);
#434=ORIENTED_EDGE('',*,*,#321,.F.);
#435=ORIENTED_EDGE('',*,*,#319,.F.);
#436=ORIENTED_EDGE('',*,*,#324,.T.);
#437=ORIENTED_EDGE('',*,*,#323,.F.);
#438=ORIENTED_EDGE('',*,*,#324,.F.);
#439=ORIENTED_EDGE('',*,*,#294,.F.);
#440=ORIENTED_EDGE('',*,*,#325,.T.);
#441=ORIENTED_EDGE('',*,*,#326,.F.);
#442=ORIENTED_EDGE('',*,*,#327,.T.);
#443=ORIENTED_EDGE('',*,*,#328,.F.);
#444=ORIENTED_EDGE('',*,*,#329,.T.);
#445=ORIENTED_EDGE('',*,*,#330,.F.);
#446=ORIENTED_EDGE('',*,*,#308,.F.);
#447=ORIENTED_EDGE('',*,*,#331,.T.);
#448=ORIENTED_EDGE('',*,*,#332,.T.);
#449=ORIENTED_EDGE('',*,*,#333,.T.);
#450=ORIENTED_EDGE('',*,*,#334,.T.);
#451=ORIENTED_EDGE('',*,*,#326,.T.);
#452=ORIENTED_EDGE('',*,*,#335,.T.);
#453=ORIENTED_EDGE('',*,*,#336,.T.);
#454=ORIENTED_EDGE('',*,*,#337,.T.);
#455=ORIENTED_EDGE('',*,*,#335,.F.);
#456=ORIENTED_EDGE('',*,*,#325,.F.);
#457=ORIENTED_EDGE('',*,*,#338,.F.);
#458=ORIENTED_EDGE('',*,*,#339,.F.);
#459=ORIENTED_EDGE('',*,*,#340,.T.);
#460=ORIENTED_EDGE('',*,*,#341,.F.);
#461=ORIENTED_EDGE('',*,*,#328,.T.);
#462=ORIENTED_EDGE('',*,*,#342,.T.);
#463=ORIENTED_EDGE('',*,*,#343,.T.);
#464=ORIENTED_EDGE('',*,*,#344,.T.);
#465=ORIENTED_EDGE('',*,*,#337,.F.);
#466=ORIENTED_EDGE('',*,*,#345,.F.);
#467=ORIENTED_EDGE('',*,*,#342,.F.);
#468=ORIENTED_EDGE('',*,*,#327,.F.);
#469=ORIENTED_EDGE('',*,*,#346,.T.);
#470=ORIENTED_EDGE('',*,*,#338,.T.);
#471=ORIENTED_EDGE('',*,*,#330,.T.);
#472=ORIENTED_EDGE('',*,*,#347,.T.);
#473=ORIENTED_EDGE('',*,*,#348,.F.);
#474=ORIENTED_EDGE('',*,*,#349,.T.);
#475=ORIENTED_EDGE('',*,*,#350,.F.);
#476=ORIENTED_EDGE('',*,*,#349,.F.);
#477=ORIENTED_EDGE('',*,*,#351,.F.);
#478=ORIENTED_EDGE('',*,*,#352,.T.);
#479=ORIENTED_EDGE('',*,*,#353,.F.);
#480=ORIENTED_EDGE('',*,*,#352,.F.);
#481=ORIENTED_EDGE('',*,*,#354,.F.);
#482=ORIENTED_EDGE('',*,*,#355,.T.);
#483=ORIENTED_EDGE('',*,*,#356,.F.);
#484=ORIENTED_EDGE('',*,*,#340,.F.);
#485=ORIENTED_EDGE('',*,*,#331,.F.);
#486=ORIENTED_EDGE('',*,*,#357,.T.);
#487=ORIENTED_EDGE('',*,*,#358,.F.);
#488=ORIENTED_EDGE('',*,*,#359,.F.);
#489=ORIENTED_EDGE('',*,*,#360,.F.);
#490=ORIENTED_EDGE('',*,*,#361,.F.);
#491=ORIENTED_EDGE('',*,*,#332,.F.);
#492=ORIENTED_EDGE('',*,*,#359,.T.);
#493=ORIENTED_EDGE('',*,*,#333,.F.);
#494=ORIENTED_EDGE('',*,*,#361,.T.);
#495=ORIENTED_EDGE('',*,*,#362,.F.);
#496=ORIENTED_EDGE('',*,*,#363,.F.);
#497=ORIENTED_EDGE('',*,*,#334,.F.);
#498=ORIENTED_EDGE('',*,*,#363,.T.);
#499=ORIENTED_EDGE('',*,*,#364,.F.);
#500=ORIENTED_EDGE('',*,*,#357,.F.);
#501=ORIENTED_EDGE('',*,*,#364,.T.);
#502=ORIENTED_EDGE('',*,*,#362,.T.);
#503=ORIENTED_EDGE('',*,*,#360,.T.);
#504=ORIENTED_EDGE('',*,*,#358,.T.);
#505=ORIENTED_EDGE('',*,*,#345,.T.);
#506=ORIENTED_EDGE('',*,*,#336,.F.);
#507=ORIENTED_EDGE('',*,*,#341,.T.);
#508=ORIENTED_EDGE('',*,*,#356,.T.);
#509=ORIENTED_EDGE('',*,*,#365,.T.);
#510=ORIENTED_EDGE('',*,*,#343,.F.);
#511=ORIENTED_EDGE('',*,*,#351,.T.);
#512=ORIENTED_EDGE('',*,*,#348,.T.);
#513=ORIENTED_EDGE('',*,*,#353,.T.);
#514=ORIENTED_EDGE('',*,*,#350,.T.);
#515=ORIENTED_EDGE('',*,*,#344,.F.);
#516=ORIENTED_EDGE('',*,*,#365,.F.);
#517=ORIENTED_EDGE('',*,*,#355,.F.);
#518=ORIENTED_EDGE('',*,*,#366,.F.);
#519=ORIENTED_EDGE('',*,*,#347,.F.);
#520=ORIENTED_EDGE('',*,*,#329,.F.);
#521=ORIENTED_EDGE('',*,*,#339,.T.);
#522=ORIENTED_EDGE('',*,*,#346,.F.);
#523=ORIENTED_EDGE('',*,*,#366,.T.);
#524=ORIENTED_EDGE('',*,*,#354,.T.);
#525=B_SPLINE_SURFACE_WITH_KNOTS('',3,3,((#795,#796,#797,#798,#799,#800,
#801,#802,#803,#804,#805,#806,#807,#808,#809,#810,#811),(#812,#813,#814,
#815,#816,#817,#818,#819,#820,#821,#822,#823,#824,#825,#826,#827,#828),
(#829,#830,#831,#832,#833,#834,#835,#836,#837,#838,#839,#840,#841,#842,
#843,#844,#845),(#846,#847,#848,#849,#850,#851,#852,#853,#854,#855,#856,
#857,#858,#859,#860,#861,#862),(#863,#864,#865,#866,#867,#868,#869,#870,
#871,#872,#873,#874,#875,#876,#877,#878,#879),(#880,#881,#882,#883,#884,
#885,#886,#887,#888,#889,#890,#891,#892,#893,#894,#895,#896)),
 .UNSPECIFIED.,.F.,.T.,.F.,(4,1,1,4),(4,1,1,1,1,1,1,1,1,1,1,1,1,1,4),(0.,
0.285714285714286,0.571428571428571,1.),(0.,0.323699483524173,0.647398967048346,
0.971098450572518,1.29479793409669,1.61849741762086,1.94219690114504,2.3737962125106,
2.58959586819338,2.80539552387616,3.23699483524173,3.5606943187659,3.88439380229007,
4.20809328581425,4.53179276933842),.UNSPECIFIED.);
#526=B_SPLINE_SURFACE_WITH_KNOTS('',3,3,((#1027,#1028,#1029,#1030,#1031,
#1032,#1033,#1034,#1035,#1036),(#1037,#1038,#1039,#1040,#1041,#1042,#1043,
#1044,#1045,#1046),(#1047,#1048,#1049,#1050,#1051,#1052,#1053,#1054,#1055,
#1056),(#1057,#1058,#1059,#1060,#1061,#1062,#1063,#1064,#1065,#1066),(#1067,
#1068,#1069,#1070,#1071,#1072,#1073,#1074,#1075,#1076)),.UNSPECIFIED.,.F.,
 .F.,.F.,(4,1,4),(4,1,1,1,1,1,1,4),(0.,0.571428571428571,1.),(0.,0.535875657305992,
1.07175131461198,1.60762697191798,2.14350262922397,2.67937828652996,3.21525394383595,
3.75112960114194),.UNSPECIFIED.);
#527=B_SPLINE_SURFACE_WITH_KNOTS('',3,3,((#1091,#1092,#1093,#1094,#1095,
#1096,#1097,#1098,#1099),(#1100,#1101,#1102,#1103,#1104,#1105,#1106,#1107,
#1108),(#1109,#1110,#1111,#1112,#1113,#1114,#1115,#1116,#1117),(#1118,#1119,
#1120,#1121,#1122,#1123,#1124,#1125,#1126),(#1127,#1128,#1129,#1130,#1131,
#1132,#1133,#1134,#1135)),.UNSPECIFIED.,.F.,.F.,.F.,(4,1,4),(4,1,1,1,1,
1,4),(0.,0.571428571428571,1.),(2.83836621328026E-16,0.459174517371496,
0.688761776057245,0.918349034742993,1.14793629342874,1.37752355211449,1.60711081080024),
 .UNSPECIFIED.);
#528=ADVANCED_FACE('',(#126),#525,.F.);
#529=ADVANCED_FACE('',(#127),#123,.T.);
#530=ADVANCED_FACE('',(#128),#114,.F.);
#531=ADVANCED_FACE('',(#129),#526,.F.);
#532=ADVANCED_FACE('',(#130),#527,.F.);
#533=ADVANCED_FACE('',(#131),#124,.F.);
#534=ADVANCED_FACE('',(#132),#115,.F.);
#535=ADVANCED_FACE('',(#133),#125,.F.);
#536=ADVANCED_FACE('',(#134),#36,.T.);
#537=ADVANCED_FACE('',(#135),#116,.T.);
#538=ADVANCED_FACE('',(#136),#37,.F.);
#539=ADVANCED_FACE('',(#137,#15),#21,.T.);
#540=ADVANCED_FACE('',(#138),#117,.T.);
#541=ADVANCED_FACE('',(#139,#16),#22,.T.);
#542=ADVANCED_FACE('',(#140,#17),#23,.F.);
#543=ADVANCED_FACE('',(#141),#118,.F.);
#544=ADVANCED_FACE('',(#142),#24,.T.);
#545=ADVANCED_FACE('',(#143),#119,.F.);
#546=ADVANCED_FACE('',(#144),#25,.T.);
#547=ADVANCED_FACE('',(#145),#120,.F.);
#548=ADVANCED_FACE('',(#146),#121,.F.);
#549=ADVANCED_FACE('',(#147),#122,.F.);
#550=ADVANCED_FACE('',(#148),#26,.T.);
#551=ADVANCED_FACE('',(#149),#27,.T.);
#552=ADVANCED_FACE('',(#150),#28,.T.);
#553=ADVANCED_FACE('',(#151),#29,.T.);
#554=ADVANCED_FACE('',(#152),#30,.T.);
#555=ADVANCED_FACE('',(#153,#18,#19,#20),#31,.T.);
#556=ADVANCED_FACE('',(#154),#32,.F.);
#557=ADVANCED_FACE('',(#155),#33,.F.);
#558=ADVANCED_FACE('',(#156),#34,.T.);
#559=ADVANCED_FACE('',(#157),#35,.F.);
#560=CLOSED_SHELL('',(#528,#529,#530,#531,#532,#533,#534,#535,#536,#537,
#538,#539,#540,#541,#542,#543,#544,#545,#546,#547,#548,#549,#550,#551,#552,
#553,#554,#555,#556,#557,#558,#559));
#561=DERIVED_UNIT_ELEMENT(#563,1.);
#562=DERIVED_UNIT_ELEMENT(#1277,-3.);
#563=(
MASS_UNIT()
NAMED_UNIT(*)
SI_UNIT(.KILO.,.GRAM.)
);
#564=DERIVED_UNIT((#561,#562));
#565=MEASURE_REPRESENTATION_ITEM('density measure',
POSITIVE_RATIO_MEASURE(7850.),#564);
#566=PROPERTY_DEFINITION_REPRESENTATION(#571,#568);
#567=PROPERTY_DEFINITION_REPRESENTATION(#572,#569);
#568=REPRESENTATION('material name',(#570),#1274);
#569=REPRESENTATION('density',(#565),#1274);
#570=DESCRIPTIVE_REPRESENTATION_ITEM('Steel','Steel');
#571=PROPERTY_DEFINITION('material property','material name',#1284);
#572=PROPERTY_DEFINITION('material property','density of part',#1284);
#573=AXIS2_PLACEMENT_3D('',#794,#634,#635);
#574=AXIS2_PLACEMENT_3D('',#956,#636,#637);
#575=AXIS2_PLACEMENT_3D('',#992,#638,#639);
#576=AXIS2_PLACEMENT_3D('',#994,#640,#641);
#577=AXIS2_PLACEMENT_3D('',#996,#642,#643);
#578=AXIS2_PLACEMENT_3D('',#997,#644,#645);
#579=AXIS2_PLACEMENT_3D('',#998,#646,#647);
#580=AXIS2_PLACEMENT_3D('',#999,#648,#649);
#581=AXIS2_PLACEMENT_3D('',#1078,#651,#652);
#582=AXIS2_PLACEMENT_3D('',#1090,#653,#654);
#583=AXIS2_PLACEMENT_3D('',#1145,#655,#656);
#584=AXIS2_PLACEMENT_3D('',#1147,#657,#658);
#585=AXIS2_PLACEMENT_3D('',#1149,#659,#660);
#586=AXIS2_PLACEMENT_3D('',#1150,#661,#662);
#587=AXIS2_PLACEMENT_3D('',#1152,#663,#664);
#588=AXIS2_PLACEMENT_3D('',#1153,#665,#666);
#589=AXIS2_PLACEMENT_3D('',#1154,#667,#668);
#590=AXIS2_PLACEMENT_3D('',#1156,#669,#670);
#591=AXIS2_PLACEMENT_3D('',#1158,#672,#673);
#592=AXIS2_PLACEMENT_3D('',#1161,#674,#675);
#593=AXIS2_PLACEMENT_3D('',#1163,#676,#677);
#594=AXIS2_PLACEMENT_3D('',#1165,#678,#679);
#595=AXIS2_PLACEMENT_3D('',#1166,#680,#681);
#596=AXIS2_PLACEMENT_3D('',#1167,#682,#683);
#597=AXIS2_PLACEMENT_3D('',#1168,#684,#685);
#598=AXIS2_PLACEMENT_3D('',#1171,#687,#688);
#599=AXIS2_PLACEMENT_3D('',#1172,#689,#690);
#600=AXIS2_PLACEMENT_3D('',#1174,#692,#693);
#601=AXIS2_PLACEMENT_3D('',#1176,#694,#695);
#602=AXIS2_PLACEMENT_3D('',#1178,#697,#698);
#603=AXIS2_PLACEMENT_3D('',#1180,#699,#700);
#604=AXIS2_PLACEMENT_3D('',#1181,#701,#702);
#605=AXIS2_PLACEMENT_3D('',#1183,#704,#705);
#606=AXIS2_PLACEMENT_3D('',#1188,#707,#708);
#607=AXIS2_PLACEMENT_3D('',#1192,#710,#711);
#608=AXIS2_PLACEMENT_3D('',#1195,#713,#714);
#609=AXIS2_PLACEMENT_3D('',#1196,#715,#716);
#610=AXIS2_PLACEMENT_3D('',#1205,#721,#722);
#611=AXIS2_PLACEMENT_3D('',#1209,#724,#725);
#612=AXIS2_PLACEMENT_3D('',#1211,#727,#728);
#613=AXIS2_PLACEMENT_3D('',#1219,#733,#734);
#614=AXIS2_PLACEMENT_3D('',#1223,#736,#737);
#615=AXIS2_PLACEMENT_3D('',#1225,#739,#740);
#616=AXIS2_PLACEMENT_3D('',#1227,#742,#743);
#617=AXIS2_PLACEMENT_3D('',#1229,#744,#745);
#618=AXIS2_PLACEMENT_3D('',#1231,#747,#748);
#619=AXIS2_PLACEMENT_3D('',#1233,#749,#750);
#620=AXIS2_PLACEMENT_3D('',#1236,#752,#753);
#621=AXIS2_PLACEMENT_3D('',#1237,#754,#755);
#622=AXIS2_PLACEMENT_3D('',#1239,#756,#757);
#623=AXIS2_PLACEMENT_3D('',#1242,#759,#760);
#624=AXIS2_PLACEMENT_3D('',#1243,#761,#762);
#625=AXIS2_PLACEMENT_3D('',#1249,#766,#767);
#626=AXIS2_PLACEMENT_3D('',#1255,#771,#772);
#627=AXIS2_PLACEMENT_3D('',#1259,#775,#776);
#628=AXIS2_PLACEMENT_3D('',#1263,#779,#780);
#629=AXIS2_PLACEMENT_3D('',#1265,#782,#783);
#630=AXIS2_PLACEMENT_3D('',#1267,#785,#786);
#631=AXIS2_PLACEMENT_3D('',#1268,#787,#788);
#632=AXIS2_PLACEMENT_3D('',#1269,#789,#790);
#633=AXIS2_PLACEMENT_3D('',#1271,#792,#793);
#634=DIRECTION('axis',(0.,0.,1.));
#635=DIRECTION('refdir',(1.,0.,0.));
#636=DIRECTION('center_axis',(0.,0.,1.));
#637=DIRECTION('ref_axis',(0.217948717948646,0.975960222726593,0.));
#638=DIRECTION('center_axis',(0.,0.,1.));
#639=DIRECTION('ref_axis',(1.,0.,0.));
#640=DIRECTION('center_axis',(0.,0.,-1.));
#641=DIRECTION('ref_axis',(1.,0.,0.));
#642=DIRECTION('center_axis',(1.11022302462516E-16,-1.,0.));
#643=DIRECTION('ref_axis',(-1.,-1.11022302462516E-16,0.));
#644=DIRECTION('center_axis',(0.,0.,1.));
#645=DIRECTION('ref_axis',(1.,0.,0.));
#646=DIRECTION('center_axis',(0.,0.,1.));
#647=DIRECTION('ref_axis',(1.,0.,0.));
#648=DIRECTION('center_axis',(-8.60849852940257E-14,1.,0.));
#649=DIRECTION('ref_axis',(0.,0.,-1.));
#650=DIRECTION('',(-8.60849852940257E-14,1.,0.));
#651=DIRECTION('center_axis',(-0.584630592093241,-0.110537028091689,-0.80373418255625));
#652=DIRECTION('ref_axis',(0.808689828521619,6.21724893790087E-14,-0.588235294117647));
#653=DIRECTION('center_axis',(0.584630592093259,-0.1105370280916,-0.803734182556249));
#654=DIRECTION('ref_axis',(-0.18578009574138,-0.982591347420851,-4.44089209850065E-15));
#655=DIRECTION('center_axis',(0.,0.,-1.));
#656=DIRECTION('ref_axis',(-1.,0.,0.));
#657=DIRECTION('center_axis',(0.,0.,-1.));
#658=DIRECTION('ref_axis',(1.,0.,0.));
#659=DIRECTION('center_axis',(-1.2335811384724E-16,-1.,0.));
#660=DIRECTION('ref_axis',(1.,-1.2335811384724E-16,0.));
#661=DIRECTION('center_axis',(0.,0.,1.));
#662=DIRECTION('ref_axis',(1.,0.,0.));
#663=DIRECTION('center_axis',(0.,0.,-1.));
#664=DIRECTION('ref_axis',(1.,0.,0.));
#665=DIRECTION('center_axis',(0.,0.,-1.));
#666=DIRECTION('ref_axis',(1.,0.,0.));
#667=DIRECTION('center_axis',(0.,0.,-1.));
#668=DIRECTION('ref_axis',(1.,0.,0.));
#669=DIRECTION('center_axis',(0.,0.,1.));
#670=DIRECTION('ref_axis',(1.,0.,0.));
#671=DIRECTION('',(0.,0.,1.));
#672=DIRECTION('center_axis',(0.,0.,-1.));
#673=DIRECTION('ref_axis',(-1.,0.,0.));
#674=DIRECTION('center_axis',(0.,0.,-1.));
#675=DIRECTION('ref_axis',(1.,0.,0.));
#676=DIRECTION('center_axis',(-1.11022302462516E-16,-1.,0.));
#677=DIRECTION('ref_axis',(1.,-1.11022302462516E-16,0.));
#678=DIRECTION('center_axis',(0.,0.,1.));
#679=DIRECTION('ref_axis',(1.,4.84201800378513E-17,0.));
#680=DIRECTION('center_axis',(0.,0.,1.));
#681=DIRECTION('ref_axis',(1.,4.84201800378513E-17,0.));
#682=DIRECTION('center_axis',(0.,0.,-1.));
#683=DIRECTION('ref_axis',(1.,0.,0.));
#684=DIRECTION('center_axis',(0.,0.,-1.));
#685=DIRECTION('ref_axis',(1.,0.,0.));
#686=DIRECTION('',(-0.707106781186548,-8.65956056235493E-17,-0.707106781186548));
#687=DIRECTION('center_axis',(0.,0.,1.));
#688=DIRECTION('ref_axis',(1.,0.,0.));
#689=DIRECTION('center_axis',(0.,0.,-1.));
#690=DIRECTION('ref_axis',(1.,0.,0.));
#691=DIRECTION('',(0.,0.,1.));
#692=DIRECTION('center_axis',(0.,0.,-1.));
#693=DIRECTION('ref_axis',(1.,0.,0.));
#694=DIRECTION('center_axis',(0.,0.,-1.));
#695=DIRECTION('ref_axis',(1.,0.,0.));
#696=DIRECTION('',(0.707106781186548,-8.65956056235494E-17,0.707106781186547));
#697=DIRECTION('center_axis',(0.,0.,-1.));
#698=DIRECTION('ref_axis',(1.,0.,0.));
#699=DIRECTION('center_axis',(0.,0.,-1.));
#700=DIRECTION('ref_axis',(1.,0.,0.));
#701=DIRECTION('center_axis',(0.,0.,1.));
#702=DIRECTION('ref_axis',(1.,0.,0.));
#703=DIRECTION('',(0.,0.,-1.));
#704=DIRECTION('center_axis',(0.,0.,1.));
#705=DIRECTION('ref_axis',(1.,0.,0.));
#706=DIRECTION('',(-1.,1.8897413185109E-16,0.));
#707=DIRECTION('center_axis',(0.,0.,1.));
#708=DIRECTION('ref_axis',(-0.707106781186519,-0.707106781186576,0.));
#709=DIRECTION('',(-8.59141817517821E-14,1.,0.));
#710=DIRECTION('center_axis',(0.,0.,1.));
#711=DIRECTION('ref_axis',(-0.707106781186505,0.70710678118659,0.));
#712=DIRECTION('',(1.,-2.15997432705796E-13,0.));
#713=DIRECTION('center_axis',(0.,0.,1.));
#714=DIRECTION('ref_axis',(0.707106781186578,-0.707106781186517,0.));
#715=DIRECTION('center_axis',(0.,0.,1.));
#716=DIRECTION('ref_axis',(1.,0.,0.));
#717=DIRECTION('',(-2.33731163078961E-16,1.,0.));
#718=DIRECTION('',(-1.,-8.60849852940257E-14,0.));
#719=DIRECTION('',(-1.16865581539498E-16,-1.,0.));
#720=DIRECTION('',(1.,-1.02482125350031E-15,0.));
#721=DIRECTION('center_axis',(0.,0.,-1.));
#722=DIRECTION('ref_axis',(-0.707106781186519,-0.707106781186576,0.));
#723=DIRECTION('',(0.,0.,-1.));
#724=DIRECTION('center_axis',(0.,0.,-1.));
#725=DIRECTION('ref_axis',(-0.707106781186519,-0.707106781186576,0.));
#726=DIRECTION('',(0.,0.,1.));
#727=DIRECTION('center_axis',(1.8897413185109E-16,1.,0.));
#728=DIRECTION('ref_axis',(1.,-1.8897413185109E-16,0.));
#729=DIRECTION('',(0.,0.,1.));
#730=DIRECTION('',(-1.,1.8897413185109E-16,0.));
#731=DIRECTION('',(0.,0.,-1.));
#732=DIRECTION('',(1.,-1.8897413185109E-16,0.));
#733=DIRECTION('center_axis',(0.,0.,-1.));
#734=DIRECTION('ref_axis',(-0.707106781186505,0.70710678118659,0.));
#735=DIRECTION('',(0.,0.,-1.));
#736=DIRECTION('center_axis',(0.,0.,-1.));
#737=DIRECTION('ref_axis',(-0.707106781186505,0.70710678118659,0.));
#738=DIRECTION('',(0.,0.,1.));
#739=DIRECTION('center_axis',(1.,8.59141817517821E-14,0.));
#740=DIRECTION('ref_axis',(8.59141817517821E-14,-1.,0.));
#741=DIRECTION('',(8.59141817517821E-14,-1.,0.));
#742=DIRECTION('center_axis',(0.,0.,-1.));
#743=DIRECTION('ref_axis',(0.707106781186594,0.707106781186501,0.));
#744=DIRECTION('center_axis',(0.,0.,-1.));
#745=DIRECTION('ref_axis',(0.707106781186594,0.707106781186501,0.));
#746=DIRECTION('',(0.,0.,-1.));
#747=DIRECTION('center_axis',(0.,0.,-1.));
#748=DIRECTION('ref_axis',(1.,0.,0.));
#749=DIRECTION('center_axis',(0.,0.,1.));
#750=DIRECTION('ref_axis',(1.,0.,0.));
#751=DIRECTION('',(0.,0.,1.));
#752=DIRECTION('center_axis',(0.,0.,-1.));
#753=DIRECTION('ref_axis',(1.,0.,0.));
#754=DIRECTION('center_axis',(0.,0.,-1.));
#755=DIRECTION('ref_axis',(1.,0.,0.));
#756=DIRECTION('center_axis',(0.,0.,1.));
#757=DIRECTION('ref_axis',(1.,0.,0.));
#758=DIRECTION('',(0.,0.,1.));
#759=DIRECTION('center_axis',(0.,0.,-1.));
#760=DIRECTION('ref_axis',(1.,0.,0.));
#761=DIRECTION('center_axis',(-1.,-8.74514136320668E-14,0.));
#762=DIRECTION('ref_axis',(-8.74514136320668E-14,1.,0.));
#763=DIRECTION('',(8.74514136320668E-14,-1.,0.));
#764=DIRECTION('',(0.,0.,-1.));
#765=DIRECTION('',(-8.74514136320668E-14,1.,0.));
#766=DIRECTION('center_axis',(1.,2.33731163078961E-16,0.));
#767=DIRECTION('ref_axis',(2.33731163078961E-16,-1.,0.));
#768=DIRECTION('',(0.,0.,-1.));
#769=DIRECTION('',(2.33731163078961E-16,-1.,0.));
#770=DIRECTION('',(0.,0.,-1.));
#771=DIRECTION('center_axis',(-8.60849852940257E-14,1.,0.));
#772=DIRECTION('ref_axis',(1.,8.60849852940257E-14,0.));
#773=DIRECTION('',(1.,8.60849852940257E-14,0.));
#774=DIRECTION('',(0.,0.,-1.));
#775=DIRECTION('center_axis',(-1.,1.16865581539498E-16,0.));
#776=DIRECTION('ref_axis',(1.16865581539498E-16,1.,0.));
#777=DIRECTION('',(1.16865581539498E-16,1.,0.));
#778=DIRECTION('',(0.,0.,-1.));
#779=DIRECTION('center_axis',(-1.02482125350031E-15,-1.,0.));
#780=DIRECTION('ref_axis',(-1.,1.02482125350031E-15,0.));
#781=DIRECTION('',(-1.,1.02482125350031E-15,0.));
#782=DIRECTION('center_axis',(0.,0.,-1.));
#783=DIRECTION('ref_axis',(1.,0.,0.));
#784=DIRECTION('',(-1.,2.15997432705796E-13,0.));
#785=DIRECTION('center_axis',(0.,0.,1.));
#786=DIRECTION('ref_axis',(1.,0.,0.));
#787=DIRECTION('center_axis',(0.,0.,1.));
#788=DIRECTION('ref_axis',(1.,0.,0.));
#789=DIRECTION('center_axis',(-2.15997432705796E-13,-1.,0.));
#790=DIRECTION('ref_axis',(-1.,2.15997432705796E-13,0.));
#791=DIRECTION('',(1.,-2.15997432705796E-13,0.));
#792=DIRECTION('center_axis',(0.,0.,1.));
#793=DIRECTION('ref_axis',(1.,0.,0.));
#794=CARTESIAN_POINT('',(0.,0.,0.));
#795=CARTESIAN_POINT('Ctrl Pts',(7.49999999999754,58.0624486863371,-13.));
#796=CARTESIAN_POINT('Ctrl Pts',(7.49999999999754,58.0624486863371,-11.8746439419828));
#797=CARTESIAN_POINT('Ctrl Pts',(6.98312550243113,58.2000654443583,-9.6264054018255));
#798=CARTESIAN_POINT('Ctrl Pts',(4.8383712852753,58.6537699938064,-6.93997431666517));
#799=CARTESIAN_POINT('Ctrl Pts',(1.73447328936728,59.0145899830246,-5.43866548516071));
#800=CARTESIAN_POINT('Ctrl Pts',(-1.73562986014791,59.0132195893221,-5.43796495390639));
#801=CARTESIAN_POINT('Ctrl Pts',(-4.83615485587593,58.6553088515073,-6.94129774628623));
#802=CARTESIAN_POINT('Ctrl Pts',(-7.22641283518492,58.1450028185298,-9.92315758760897));
#803=CARTESIAN_POINT('Ctrl Pts',(-7.75925882316568,57.9937214301743,-13.4143325389028));
#804=CARTESIAN_POINT('Ctrl Pts',(-6.85263642599583,58.2248253785604,-16.3090919762358));
#805=CARTESIAN_POINT('Ctrl Pts',(-5.15876271691636,58.5897188312533,-18.803860957849));
#806=CARTESIAN_POINT('Ctrl Pts',(-2.1213939401086,59.0167961873419,-20.5649097847262));
#807=CARTESIAN_POINT('Ctrl Pts',(1.7350467770897,59.0133094639558,-20.5602946562327));
#808=CARTESIAN_POINT('Ctrl Pts',(4.83756947420724,58.6538820796656,-19.0598770223834));
#809=CARTESIAN_POINT('Ctrl Pts',(6.98337145913642,58.19979175805,-16.3733163591556));
#810=CARTESIAN_POINT('Ctrl Pts',(7.49999999999754,58.0624486863371,-14.1253560580172));
#811=CARTESIAN_POINT('Ctrl Pts',(7.49999999999754,58.0624486863371,-13.));
#812=CARTESIAN_POINT('Ctrl Pts',(7.49999999999753,58.2329733047346,-13.));
#813=CARTESIAN_POINT('Ctrl Pts',(7.49999999999753,58.2329733047346,-11.8803998911578));
#814=CARTESIAN_POINT('Ctrl Pts',(6.98929932644651,58.3667425349861,-9.64300751210651));
#815=CARTESIAN_POINT('Ctrl Pts',(4.85455241271419,58.8099280204965,-6.95170339349463));
#816=CARTESIAN_POINT('Ctrl Pts',(1.74301296309562,59.1638866458981,-5.43820640184468));
#817=CARTESIAN_POINT('Ctrl Pts',(-1.7440503665534,59.1625868939236,-5.43756926175664));
#818=CARTESIAN_POINT('Ctrl Pts',(-4.85245872791158,58.8113913491656,-6.95294500266495));
#819=CARTESIAN_POINT('Ctrl Pts',(-7.23096568239522,58.3130466192329,-9.94058269327879));
#820=CARTESIAN_POINT('Ctrl Pts',(-7.75615380529521,58.1661678011732,-13.4111612536545));
#821=CARTESIAN_POINT('Ctrl Pts',(-6.8589052841412,58.3910208098482,-16.2944721449248));
#822=CARTESIAN_POINT('Ctrl Pts',(-5.17426480206524,58.7472218540319,-18.7902255883799));
#823=CARTESIAN_POINT('Ctrl Pts',(-2.13227675261715,59.1660090897106,-20.565348783896));
#824=CARTESIAN_POINT('Ctrl Pts',(1.74378193868392,59.1626654970913,-20.5607518408531));
#825=CARTESIAN_POINT('Ctrl Pts',(4.85359018744802,58.8100049856291,-19.0480811788707));
#826=CARTESIAN_POINT('Ctrl Pts',(6.98960633042551,58.3664855580552,-16.3567234750938));
#827=CARTESIAN_POINT('Ctrl Pts',(7.49999999999753,58.2329733047346,-14.1196001088422));
#828=CARTESIAN_POINT('Ctrl Pts',(7.49999999999753,58.2329733047346,-13.));
#829=CARTESIAN_POINT('Ctrl Pts',(7.58937075539992,58.5730896965712,-13.));
#830=CARTESIAN_POINT('Ctrl Pts',(7.58937075539992,58.5730896965712,-11.8783882176821));
#831=CARTESIAN_POINT('Ctrl Pts',(7.08123157231751,58.6992532823971,-9.63608420100006));
#832=CARTESIAN_POINT('Ctrl Pts',(4.93441873243119,59.121585911069,-6.91286574452825));
#833=CARTESIAN_POINT('Ctrl Pts',(1.77516464703645,59.4619343571151,-5.36848248497944));
#834=CARTESIAN_POINT('Ctrl Pts',(-1.77606007980601,59.4607701554208,-5.36792679696736));
#835=CARTESIAN_POINT('Ctrl Pts',(-4.93244203054703,59.1228956883849,-6.91399050164496));
#836=CARTESIAN_POINT('Ctrl Pts',(-7.32361984760346,58.6482787268565,-9.93760428448675));
#837=CARTESIAN_POINT('Ctrl Pts',(-7.84436689112986,58.5101290431144,-13.4103533736138));
#838=CARTESIAN_POINT('Ctrl Pts',(-6.94940926041461,58.72258608264,-16.3036698817566));
#839=CARTESIAN_POINT('Ctrl Pts',(-5.25705730510315,59.0615485668176,-18.8239788056548));
#840=CARTESIAN_POINT('Ctrl Pts',(-2.17223121855179,59.4638872557953,-20.6351042022251));
#841=CARTESIAN_POINT('Ctrl Pts',(1.77625506528425,59.460835464167,-20.630449445115));
#842=CARTESIAN_POINT('Ctrl Pts',(4.93321105716437,59.1215865249227,-19.086841288447));
#843=CARTESIAN_POINT('Ctrl Pts',(7.08163556890496,58.6990312079059,-16.3636519370144));
#844=CARTESIAN_POINT('Ctrl Pts',(7.58937075539991,58.5730896965712,-14.1216117823179));
#845=CARTESIAN_POINT('Ctrl Pts',(7.58937075539991,58.5730896965712,-13.));
#846=CARTESIAN_POINT('Ctrl Pts',(8.01722772474316,59.0183114729027,-13.));
#847=CARTESIAN_POINT('Ctrl Pts',(8.01722772474316,59.0183114729027,-11.8290775767697));
#848=CARTESIAN_POINT('Ctrl Pts',(7.47964875760076,59.1399591295671,-9.48814232322535));
#849=CARTESIAN_POINT('Ctrl Pts',(5.2098739480394,59.5499732914061,-6.64397928306872));
#850=CARTESIAN_POINT('Ctrl Pts',(1.87358376447221,59.8822339863963,-5.0311855271979));
#851=CARTESIAN_POINT('Ctrl Pts',(-1.87453258450917,59.8811617381,-5.03061451170768));
#852=CARTESIAN_POINT('Ctrl Pts',(-5.20778306297465,59.5512087358757,-6.64514214393042));
#853=CARTESIAN_POINT('Ctrl Pts',(-7.73596790458176,59.0905476585125,-9.80308558997112));
#854=CARTESIAN_POINT('Ctrl Pts',(-8.28701186497255,58.9574881520521,-13.4283209769814));
#855=CARTESIAN_POINT('Ctrl Pts',(-7.34033533395264,59.1626979713814,-16.4490422462652));
#856=CARTESIAN_POINT('Ctrl Pts',(-5.55087975631351,59.4915128116432,-19.081150410945));
#857=CARTESIAN_POINT('Ctrl Pts',(-2.29259077143418,59.8840994422365,-20.972580766038));
#858=CARTESIAN_POINT('Ctrl Pts',(1.8747016469702,59.8811904738985,-20.9676872610579));
#859=CARTESIAN_POINT('Ctrl Pts',(5.20863371458689,59.5499526307239,-19.3557262197207));
#860=CARTESIAN_POINT('Ctrl Pts',(7.48006389499026,59.1397512341809,-16.5115781504364));
#861=CARTESIAN_POINT('Ctrl Pts',(8.01722772474316,59.0183114729027,-14.1709224232304));
#862=CARTESIAN_POINT('Ctrl Pts',(8.01722772474316,59.0183114729027,-13.));
#863=CARTESIAN_POINT('Ctrl Pts',(8.46831085111871,59.0941573420014,-13.));
#864=CARTESIAN_POINT('Ctrl Pts',(8.46831085111871,59.0941573420014,-11.7640038271403));
#865=CARTESIAN_POINT('Ctrl Pts',(7.88981007878218,59.2258128327639,-9.29393882047958));
#866=CARTESIAN_POINT('Ctrl Pts',(5.47583579704091,59.6633251713018,-6.3245847840264));
#867=CARTESIAN_POINT('Ctrl Pts',(1.96494655419781,60.0139584772472,-4.65627552406409));
#868=CARTESIAN_POINT('Ctrl Pts',(-1.96614894221198,60.0126794122062,-4.65558391451174));
#869=CARTESIAN_POINT('Ctrl Pts',(-5.47343437744611,59.6647116186737,-6.32595282600118));
#870=CARTESIAN_POINT('Ctrl Pts',(-8.16322755389235,59.1729500424595,-9.62225989491117));
#871=CARTESIAN_POINT('Ctrl Pts',(-8.75849593164832,59.0286832690543,-13.4540228762184));
#872=CARTESIAN_POINT('Ctrl Pts',(-7.74251347329736,59.2499120694155,-16.6368433427227));
#873=CARTESIAN_POINT('Ctrl Pts',(-5.83710682405493,59.6013196118129,-19.3908803259102));
#874=CARTESIAN_POINT('Ctrl Pts',(-2.40363396919859,60.0160042373869,-21.3476593080012));
#875=CARTESIAN_POINT('Ctrl Pts',(1.96576040285258,60.0128065883841,-21.3425657158193));
#876=CARTESIAN_POINT('Ctrl Pts',(5.47480710523074,59.6633323915527,-19.6751912243489));
#877=CARTESIAN_POINT('Ctrl Pts',(7.89013765309881,59.2255789259047,-16.7057604886884));
#878=CARTESIAN_POINT('Ctrl Pts',(8.46831085111871,59.0941573420014,-14.2359961728597));
#879=CARTESIAN_POINT('Ctrl Pts',(8.46831085111871,59.0941573420014,-13.));
#880=CARTESIAN_POINT('Ctrl Pts',(8.71794871794619,59.0384089090637,-13.));
#881=CARTESIAN_POINT('Ctrl Pts',(8.71794871794619,59.0384089090637,-11.7245964675805));
#882=CARTESIAN_POINT('Ctrl Pts',(8.11713733615959,59.179554301906,-9.17659278873556));
#883=CARTESIAN_POINT('Ctrl Pts',(5.62408969912376,59.64489230134,-6.13197089222053));
#884=CARTESIAN_POINT('Ctrl Pts',(2.01613989191444,60.0149640851534,-4.43048754984881));
#885=CARTESIAN_POINT('Ctrl Pts',(-2.01748428188099,60.0135585531509,-4.42969361442725));
#886=CARTESIAN_POINT('Ctrl Pts',(-5.62151333674434,59.6464706169305,-6.1334707791244));
#887=CARTESIAN_POINT('Ctrl Pts',(-8.39993286824882,59.1230798138767,-9.5129119326235));
#888=CARTESIAN_POINT('Ctrl Pts',(-9.01930940128628,58.9679194155633,-13.4695768774232));
#889=CARTESIAN_POINT('Ctrl Pts',(-7.96545772594355,59.2049491062157,-16.7503042397339));
#890=CARTESIAN_POINT('Ctrl Pts',(-5.99651050855202,59.5791988012854,-19.5777090855622));
#891=CARTESIAN_POINT('Ctrl Pts',(-2.46589381072419,60.0172268588122,-21.5735644226897));
#892=CARTESIAN_POINT('Ctrl Pts',(2.0168065101217,60.0136507322624,-21.5683339437304));
#893=CARTESIAN_POINT('Ctrl Pts',(5.62315767942072,59.6450072611955,-19.8678606253678));
#894=CARTESIAN_POINT('Ctrl Pts',(8.11742323455206,59.1792735980001,-16.8230918737096));
#895=CARTESIAN_POINT('Ctrl Pts',(8.71794871794619,59.0384089090637,-14.2754035324195));
#896=CARTESIAN_POINT('Ctrl Pts',(8.71794871794619,59.0384089090637,-13.));
#897=CARTESIAN_POINT('',(-2.9458278383599,59.8913786645778,-4.99994711641449));
#898=CARTESIAN_POINT('',(2.94573827528149,59.891636265234,-4.99988759336719));
#899=CARTESIAN_POINT('Ctrl Pts',(-2.9458278383599,59.8913786645778,-4.99994711641449));
#900=CARTESIAN_POINT('Ctrl Pts',(-2.9321987162389,59.8923861454543,-4.99669821298285));
#901=CARTESIAN_POINT('Ctrl Pts',(-2.91856361246248,59.8933837800538,-4.99347151804776));
#902=CARTESIAN_POINT('Ctrl Pts',(-2.90492267758927,59.8943716705119,-4.99026708955569));
#903=CARTESIAN_POINT('Ctrl Pts',(-2.74100982732137,59.9062424068111,-4.95176188353446));
#904=CARTESIAN_POINT('Ctrl Pts',(-2.57617244666713,59.91671614508,-4.91644767678646));
#905=CARTESIAN_POINT('Ctrl Pts',(-2.41056626917783,59.9259478514673,-4.88442262383774));
#906=CARTESIAN_POINT('Ctrl Pts',(-2.24968227389289,59.9349163200922,-4.85331075020045));
#907=CARTESIAN_POINT('Ctrl Pts',(-2.08807222976232,59.9427123518927,-4.82530355965149));
#908=CARTESIAN_POINT('Ctrl Pts',(-1.9258587239975,59.9494366911161,-4.80050096308379));
#909=CARTESIAN_POINT('Ctrl Pts',(-1.75407891084562,59.9565575885402,-4.77423566917998));
#910=CARTESIAN_POINT('Ctrl Pts',(-1.58162206879964,59.9624770092548,-4.75156494336712));
#911=CARTESIAN_POINT('Ctrl Pts',(-1.40868926348868,59.9673675401752,-4.73245892676127));
#912=CARTESIAN_POINT('Ctrl Pts',(-1.28905323039302,59.9707508410937,-4.71924126091197));
#913=CARTESIAN_POINT('Ctrl Pts',(-1.1691890682818,59.9736406968074,-4.70772961699718));
#914=CARTESIAN_POINT('Ctrl Pts',(-1.04915936827984,59.976080277726,-4.69791269191508));
#915=CARTESIAN_POINT('Ctrl Pts',(-0.877675374269259,59.9795656574248,-4.68388745047939));
#916=CARTESIAN_POINT('Ctrl Pts',(-0.70586725205369,59.9821331915357,-4.67332842007832));
#917=CARTESIAN_POINT('Ctrl Pts',(-0.533877867447962,59.9838633789505,-4.66621972651414));
#918=CARTESIAN_POINT('Ctrl Pts',(-0.507726012251459,59.9841264626916,-4.66513881372902));
#919=CARTESIAN_POINT('Ctrl Pts',(-0.4815699543585,59.9843700890586,-4.66413767216089));
#920=CARTESIAN_POINT('Ctrl Pts',(-0.455410183606092,59.9845944363064,-4.66321624197826));
#921=CARTESIAN_POINT('Ctrl Pts',(-0.334098995828185,59.9856348059401,-4.65894327678425));
#922=CARTESIAN_POINT('Ctrl Pts',(-0.212718528371149,59.9862614517595,-4.65638537727457));
#923=CARTESIAN_POINT('Ctrl Pts',(-0.0913156359454304,59.986483712134,-4.65554029160764));
#924=CARTESIAN_POINT('Ctrl Pts',(0.0189939304210731,59.9866856632165,-4.65477242659554));
#925=CARTESIAN_POINT('Ctrl Pts',(0.129314853919257,59.986553579319,-4.65541875140319));
#926=CARTESIAN_POINT('Ctrl Pts',(0.239611829346698,59.9860848288691,-4.65747943529322));
#927=CARTESIAN_POINT('Ctrl Pts',(0.381946681427339,59.9854799208406,-4.66013868442979));
#928=CARTESIAN_POINT('Ctrl Pts',(0.524229165890798,59.9843152500853,-4.66515287999634));
#929=CARTESIAN_POINT('Ctrl Pts',(0.666379784521334,59.9825626901309,-4.67252639159071));
#930=CARTESIAN_POINT('Ctrl Pts',(0.838744140959404,59.9804376281961,-4.68146712356147));
#931=CARTESIAN_POINT('Ctrl Pts',(1.0108911995969,59.9774500902098,-4.69387356745478));
#932=CARTESIAN_POINT('Ctrl Pts',(1.1826644864594,59.9735006239919,-4.70976443418233));
#933=CARTESIAN_POINT('Ctrl Pts',(1.28660326040438,59.9711108305385,-4.71937988274685));
#934=CARTESIAN_POINT('Ctrl Pts',(1.3904050290475,59.9683678515814,-4.73027102517245));
#935=CARTESIAN_POINT('Ctrl Pts',(1.49403353550513,59.9652405325378,-4.7424416010604));
#936=CARTESIAN_POINT('Ctrl Pts',(1.63811640515771,59.9608923747044,-4.75936331072509));
#937=CARTESIAN_POINT('Ctrl Pts',(1.78187950232721,59.9558017222792,-4.77875987877501));
#938=CARTESIAN_POINT('Ctrl Pts',(1.92520011678067,59.9498622929924,-4.80065021729432));
#939=CARTESIAN_POINT('Ctrl Pts',(2.09296897331825,59.9429096905092,-4.82627470318289));
#940=CARTESIAN_POINT('Ctrl Pts',(2.26013226631188,59.9347951050442,-4.85531559930996));
#941=CARTESIAN_POINT('Ctrl Pts',(2.42653954824004,59.9254100854942,-4.88766947599681));
#942=CARTESIAN_POINT('Ctrl Pts',(2.58671400261832,59.9163765842655,-4.91881152990991));
#943=CARTESIAN_POINT('Ctrl Pts',(2.74618825015059,59.9061657832335,-4.95302269660317));
#944=CARTESIAN_POINT('Ctrl Pts',(2.90480775724126,59.8946409219707,-4.99021867525519));
#945=CARTESIAN_POINT('Ctrl Pts',(2.9184571009232,59.8936491978433,-4.99341942089814));
#946=CARTESIAN_POINT('Ctrl Pts',(2.93210065759916,59.8926476788592,-4.9966424120241));
#947=CARTESIAN_POINT('Ctrl Pts',(2.9457382752815,59.891636265234,-4.99988759336719));
#948=CARTESIAN_POINT('',(8.71794871794619,59.0384089090637,-13.));
#949=CARTESIAN_POINT('Ctrl Pts',(2.94573827528164,59.891636265234,-4.99988759336724));
#950=CARTESIAN_POINT('Ctrl Pts',(3.84635134128946,59.824757810287,-5.315706390493));
#951=CARTESIAN_POINT('Ctrl Pts',(5.84546399467333,59.6035718426825,-6.40232313801925));
#952=CARTESIAN_POINT('Ctrl Pts',(8.11713733615959,59.179554301906,-9.17659278873556));
#953=CARTESIAN_POINT('Ctrl Pts',(8.71794871794619,59.0384089090637,-11.7245964675805));
#954=CARTESIAN_POINT('Ctrl Pts',(8.71794871794619,59.0384089090637,-13.));
#955=CARTESIAN_POINT('',(7.49999999999754,58.0624486863371,-13.));
#956=CARTESIAN_POINT('Origin',(8.49999999999754,58.0624486863371,-13.));
#957=CARTESIAN_POINT('',(-0.000511936198363816,58.9989312285889,-5.50091191971592));
#958=CARTESIAN_POINT('Ctrl Pts',(7.49999999999754,58.0624486863371,-13.));
#959=CARTESIAN_POINT('Ctrl Pts',(7.49999999999754,58.0624486863371,-11.8746439419828));
#960=CARTESIAN_POINT('Ctrl Pts',(6.98312550243113,58.2000654443583,-9.6264054018255));
#961=CARTESIAN_POINT('Ctrl Pts',(4.8383712852753,58.6537699938064,-6.93997431666517));
#962=CARTESIAN_POINT('Ctrl Pts',(2.2517884209216,58.9544534577793,-5.68888304279221));
#963=CARTESIAN_POINT('Ctrl Pts',(0.562511076705439,58.9990419881854,-5.50095702970379));
#964=CARTESIAN_POINT('Ctrl Pts',(-0.000511936198363504,58.9989312285889,
-5.50091191971592));
#965=CARTESIAN_POINT('Ctrl Pts',(-0.000511936198363504,58.9989312285889,
-5.50091191971592));
#966=CARTESIAN_POINT('Ctrl Pts',(-0.563532334672079,58.9988204695068,-5.50086680993753));
#967=CARTESIAN_POINT('Ctrl Pts',(-2.25238522589437,58.9535676611877,-5.68852100103881));
#968=CARTESIAN_POINT('Ctrl Pts',(-4.83615485587593,58.6553088515073,-6.94129774628623));
#969=CARTESIAN_POINT('Ctrl Pts',(-7.22641283518492,58.1450028185298,-9.92315758760897));
#970=CARTESIAN_POINT('Ctrl Pts',(-7.75925882316568,57.9937214301743,-13.4143325389028));
#971=CARTESIAN_POINT('Ctrl Pts',(-6.85263642599583,58.2248253785604,-16.3090919762358));
#972=CARTESIAN_POINT('Ctrl Pts',(-5.15876271691636,58.5897188312533,-18.803860957849));
#973=CARTESIAN_POINT('Ctrl Pts',(-2.1213939401086,59.0167961873419,-20.5649097847262));
#974=CARTESIAN_POINT('Ctrl Pts',(1.7350467770897,59.0133094639558,-20.5602946562327));
#975=CARTESIAN_POINT('Ctrl Pts',(4.83756947420724,58.6538820796656,-19.0598770223834));
#976=CARTESIAN_POINT('Ctrl Pts',(6.98337145913642,58.19979175805,-16.3733163591556));
#977=CARTESIAN_POINT('Ctrl Pts',(7.49999999999754,58.0624486863371,-14.1253560580172));
#978=CARTESIAN_POINT('Ctrl Pts',(7.49999999999754,58.0624486863371,-13.));
#979=CARTESIAN_POINT('Ctrl Pts',(8.71794871794619,59.0384089090637,-13.));
#980=CARTESIAN_POINT('Ctrl Pts',(8.71794871794619,59.0384089090637,-14.2754035324195));
#981=CARTESIAN_POINT('Ctrl Pts',(8.11742323455206,59.1792735980001,-16.8230918737096));
#982=CARTESIAN_POINT('Ctrl Pts',(5.62315767942072,59.6450072611955,-19.8678606253678));
#983=CARTESIAN_POINT('Ctrl Pts',(2.0168065101217,60.0136507322624,-21.5683339437304));
#984=CARTESIAN_POINT('Ctrl Pts',(-2.46589381072419,60.0172268588122,-21.5735644226897));
#985=CARTESIAN_POINT('Ctrl Pts',(-5.99651050855202,59.5791988012854,-19.5777090855622));
#986=CARTESIAN_POINT('Ctrl Pts',(-7.96545772594355,59.2049491062157,-16.7503042397339));
#987=CARTESIAN_POINT('Ctrl Pts',(-9.01930940128628,58.9679194155633,-13.4695768774232));
#988=CARTESIAN_POINT('Ctrl Pts',(-8.39993286824882,59.1230798138767,-9.5129119326235));
#989=CARTESIAN_POINT('Ctrl Pts',(-5.84355887976699,59.6046423063534,-6.40354872722875));
#990=CARTESIAN_POINT('Ctrl Pts',(-3.84583517217282,59.8247731406313,-5.31602427624748));
#991=CARTESIAN_POINT('Ctrl Pts',(-2.94582783850435,59.8913786645671,-4.99994711646522));
#992=CARTESIAN_POINT('Origin',(3.99680288865056E-13,20.,-5.));
#993=CARTESIAN_POINT('',(-34.9999999999996,20.,0.));
#994=CARTESIAN_POINT('Origin',(3.99680288865056E-13,20.,0.));
#995=CARTESIAN_POINT('',(-39.9999999999996,20.,-5.));
#996=CARTESIAN_POINT('Origin',(-34.9999999999996,20.,-5.));
#997=CARTESIAN_POINT('Origin',(3.99680288865056E-13,20.,-5.));
#998=CARTESIAN_POINT('Origin',(3.99680288865056E-13,20.,-5.));
#999=CARTESIAN_POINT('Origin',(-3.87269847826248E-12,74.5000000000011,-13.));
#1000=CARTESIAN_POINT('',(6.06517371390983,56.3558798545714,-8.58823529411764));
#1001=CARTESIAN_POINT('',(-6.06517371391445,56.3558798545705,-8.58823529411764));
#1002=CARTESIAN_POINT('Ctrl Pts',(6.06517371390983,56.3558798545714,-8.58823529411764));
#1003=CARTESIAN_POINT('Ctrl Pts',(6.98661283984856,56.1584328459539,-9.85500465699007));
#1004=CARTESIAN_POINT('Ctrl Pts',(8.01381384039798,55.8593281643811,-13.0025365180785));
#1005=CARTESIAN_POINT('Ctrl Pts',(6.47659673587725,56.3089202650914,-17.714496469861));
#1006=CARTESIAN_POINT('Ctrl Pts',(2.48932213366813,57.026301095732,-20.6147985728676));
#1007=CARTESIAN_POINT('Ctrl Pts',(-2.49070181965857,57.028997766972,-20.6199799230538));
#1008=CARTESIAN_POINT('Ctrl Pts',(-6.47253342882145,56.3120971554648,-17.7105862486447));
#1009=CARTESIAN_POINT('Ctrl Pts',(-8.01660614581616,55.8558276189096,-13.0074079507984));
#1010=CARTESIAN_POINT('Ctrl Pts',(-6.98661283985314,56.1584328459529,-9.85500465699007));
#1011=CARTESIAN_POINT('Ctrl Pts',(-6.06517371391445,56.3558798545705,-8.58823529411764));
#1012=CARTESIAN_POINT('',(-7.04954271173175E-7,55.8740151153122,-5.50197400078524));
#1013=CARTESIAN_POINT('Ctrl Pts',(-0.000885164026248088,55.8740145096833,
-5.50197444681448));
#1014=CARTESIAN_POINT('Ctrl Pts',(0.336970189048107,55.8742356780041,-5.50178439771094));
#1015=CARTESIAN_POINT('Ctrl Pts',(1.35058372911698,55.909882797284,-5.56883344475367));
#1016=CARTESIAN_POINT('Ctrl Pts',(2.98082111183909,56.1420350791623,-6.02150845921689));
#1017=CARTESIAN_POINT('Ctrl Pts',(4.72392624669379,56.4313475253713,-7.05778202827249));
#1018=CARTESIAN_POINT('Ctrl Pts',(5.67039802278478,56.4404728321142,-8.04550844798494));
#1019=CARTESIAN_POINT('Ctrl Pts',(6.06517371390983,56.3558798545714,-8.58823529411764));
#1020=CARTESIAN_POINT('',(-3.87177999316312E-12,74.5000000000011,-5.5));
#1021=CARTESIAN_POINT('Ctrl Pts',(-6.06517371391445,56.3558798545705,-8.58823529411765));
#1022=CARTESIAN_POINT('Ctrl Pts',(-5.27562233166438,56.5250658096561,-7.50278160185223));
#1023=CARTESIAN_POINT('Ctrl Pts',(-3.63216004296497,56.2360358433799,-6.1986562037476));
#1024=CARTESIAN_POINT('Ctrl Pts',(-1.3517117450247,55.9080636576376,-5.57025780231153));
#1025=CARTESIAN_POINT('Ctrl Pts',(-0.338085164929267,55.8737734303963,-5.50212481209899));
#1026=CARTESIAN_POINT('Ctrl Pts',(-7.04954271207869E-7,55.8740151153122,
-5.50197400078524));
#1027=CARTESIAN_POINT('Ctrl Pts',(6.06517371390983,56.3558798545714,-8.58823529411764));
#1028=CARTESIAN_POINT('Ctrl Pts',(6.98661283984856,56.1584328459539,-9.85500465699007));
#1029=CARTESIAN_POINT('Ctrl Pts',(8.01381384039798,55.8593281643811,-13.0025365180785));
#1030=CARTESIAN_POINT('Ctrl Pts',(6.47659673587725,56.3089202650914,-17.714496469861));
#1031=CARTESIAN_POINT('Ctrl Pts',(2.48932213366813,57.026301095732,-20.6147985728676));
#1032=CARTESIAN_POINT('Ctrl Pts',(-2.49070181965857,57.028997766972,-20.6199799230538));
#1033=CARTESIAN_POINT('Ctrl Pts',(-6.47253342882145,56.3120971554648,-17.7105862486447));
#1034=CARTESIAN_POINT('Ctrl Pts',(-8.01660614581616,55.8558276189096,-13.0074079507984));
#1035=CARTESIAN_POINT('Ctrl Pts',(-6.98661283985314,56.1584328459529,-9.85500465699007));
#1036=CARTESIAN_POINT('Ctrl Pts',(-6.06517371391445,56.3558798545705,-8.58823529411764));
#1037=CARTESIAN_POINT('Ctrl Pts',(6.04758703312758,56.0870636304226,-8.5640576053453));
#1038=CARTESIAN_POINT('Ctrl Pts',(6.97688709340728,55.8980566856807,-9.83052331807428));
#1039=CARTESIAN_POINT('Ctrl Pts',(8.02463827830476,55.6096654704102,-13.0022882021434));
#1040=CARTESIAN_POINT('Ctrl Pts',(6.45469134698037,56.0437631388125,-17.7527183024017));
#1041=CARTESIAN_POINT('Ctrl Pts',(2.45719805523724,56.7259101177048,-20.6136422922181));
#1042=CARTESIAN_POINT('Ctrl Pts',(-2.45786528632612,56.7283828747108,-20.6181980457808));
#1043=CARTESIAN_POINT('Ctrl Pts',(-6.45071300475852,56.0466605418316,-17.7478343363604));
#1044=CARTESIAN_POINT('Ctrl Pts',(-8.0280227029351,55.6061695706111,-13.0073834469944));
#1045=CARTESIAN_POINT('Ctrl Pts',(-6.97688709341181,55.8980566856797,-9.83052331807427));
#1046=CARTESIAN_POINT('Ctrl Pts',(-6.04758703313216,56.0870636304217,-8.56405760534531));
#1047=CARTESIAN_POINT('Ctrl Pts',(6.18120759244471,55.620078872747,-8.40263884675236));
#1048=CARTESIAN_POINT('Ctrl Pts',(7.13789683700331,55.4449056478397,-9.71253566884868));
#1049=CARTESIAN_POINT('Ctrl Pts',(8.22319588250459,55.1746414064384,-13.0015203806332));
#1050=CARTESIAN_POINT('Ctrl Pts',(6.59695719647592,55.5823461592148,-17.9322318532103));
#1051=CARTESIAN_POINT('Ctrl Pts',(2.49597595603057,56.2065431885761,-20.8694293145107));
#1052=CARTESIAN_POINT('Ctrl Pts',(-2.49638649394537,56.2089462422031,-20.8748436042323));
#1053=CARTESIAN_POINT('Ctrl Pts',(-6.59237843644677,55.5848345583108,-17.9262321080271));
#1054=CARTESIAN_POINT('Ctrl Pts',(-8.22740579434202,55.1709738212264,-13.0064823668005));
#1055=CARTESIAN_POINT('Ctrl Pts',(-7.13789683700775,55.4449056478387,-9.71253566884864));
#1056=CARTESIAN_POINT('Ctrl Pts',(-6.18120759244922,55.6200788727461,-8.40263884675236));
#1057=CARTESIAN_POINT('Ctrl Pts',(6.52788007351136,55.4035784115808,-8.12069655744286));
#1058=CARTESIAN_POINT('Ctrl Pts',(7.52544214437645,55.2198073768381,-9.51870931526386));
#1059=CARTESIAN_POINT('Ctrl Pts',(8.64378577773524,54.9393608950538,-13.0024507171628));
#1060=CARTESIAN_POINT('Ctrl Pts',(6.96947840271843,55.3614926218229,-18.2199212664524));
#1061=CARTESIAN_POINT('Ctrl Pts',(2.66574919082145,56.0244794077446,-21.4021780724487));
#1062=CARTESIAN_POINT('Ctrl Pts',(-2.66690262467777,56.0269258328913,-21.4079516749518));
#1063=CARTESIAN_POINT('Ctrl Pts',(-6.96496267621626,55.3643135783762,-18.2150036404794));
#1064=CARTESIAN_POINT('Ctrl Pts',(-8.64724191829719,54.9359317246198,-13.0077949853176));
#1065=CARTESIAN_POINT('Ctrl Pts',(-7.52544214438086,55.219807376837,-9.5187093152638));
#1066=CARTESIAN_POINT('Ctrl Pts',(-6.52788007351584,55.4035784115798,-8.12069655744286));
#1067=CARTESIAN_POINT('Ctrl Pts',(6.68808344669007,55.3732885071506,-8.));
#1068=CARTESIAN_POINT('Ctrl Pts',(7.70415686123878,55.1811779041715,-9.43567194458883));
#1069=CARTESIAN_POINT('Ctrl Pts',(8.83685418076347,54.8901571329114,-13.002874720489));
#1070=CARTESIAN_POINT('Ctrl Pts',(7.14176072496766,55.3275980957647,-18.3430959991759));
#1071=CARTESIAN_POINT('Ctrl Pts',(2.74498224469382,56.0255902553069,-21.6301050492499));
#1072=CARTESIAN_POINT('Ctrl Pts',(-2.74650362816373,56.0282140435403,-21.6359772461276));
#1073=CARTESIAN_POINT('Ctrl Pts',(-7.1372801052947,55.330689124236,-18.3386644151307));
#1074=CARTESIAN_POINT('Ctrl Pts',(-8.83993326349427,54.8867511967768,-13.0083956775715));
#1075=CARTESIAN_POINT('Ctrl Pts',(-7.70415686124318,55.1811779041703,-9.43567194458877));
#1076=CARTESIAN_POINT('Ctrl Pts',(-6.68808344669454,55.3732885071496,-8.));
#1077=CARTESIAN_POINT('',(-6.68808344669454,55.3732885071496,-8.));
#1078=CARTESIAN_POINT('Origin',(-6.87386354243607,56.3558798545705,-8.));
#1079=CARTESIAN_POINT('',(6.68808344669007,55.3732885071506,-8.));
#1080=CARTESIAN_POINT('Ctrl Pts',(-6.68808344669454,55.3732885071496,-8.));
#1081=CARTESIAN_POINT('Ctrl Pts',(-7.70415686124318,55.1811779041703,-9.43567194458877));
#1082=CARTESIAN_POINT('Ctrl Pts',(-8.83993326349427,54.8867511967768,-13.0083956775715));
#1083=CARTESIAN_POINT('Ctrl Pts',(-7.1372801052947,55.330689124236,-18.3386644151307));
#1084=CARTESIAN_POINT('Ctrl Pts',(-2.74650362816373,56.0282140435403,-21.6359772461276));
#1085=CARTESIAN_POINT('Ctrl Pts',(2.74498224469382,56.0255902553069,-21.6301050492499));
#1086=CARTESIAN_POINT('Ctrl Pts',(7.14176072496766,55.3275980957647,-18.3430959991759));
#1087=CARTESIAN_POINT('Ctrl Pts',(8.83685418076347,54.8901571329114,-13.002874720489));
#1088=CARTESIAN_POINT('Ctrl Pts',(7.70415686123878,55.1811779041715,-9.43567194458883));
#1089=CARTESIAN_POINT('Ctrl Pts',(6.68808344669007,55.3732885071506,-8.));
#1090=CARTESIAN_POINT('Origin',(6.87386354243145,56.3558798545715,-8.));
#1091=CARTESIAN_POINT('Ctrl Pts',(-6.06517371391445,56.3558798545705,-8.58823529411765));
#1092=CARTESIAN_POINT('Ctrl Pts',(-5.27562233166438,56.5250658096561,-7.50278160185223));
#1093=CARTESIAN_POINT('Ctrl Pts',(-3.63216004296497,56.2360358433799,-6.1986562037476));
#1094=CARTESIAN_POINT('Ctrl Pts',(-1.02622206290806,55.8612520010976,-5.48056614119789));
#1095=CARTESIAN_POINT('Ctrl Pts',(1.02457434164254,55.8634577649433,-5.47830901821665));
#1096=CARTESIAN_POINT('Ctrl Pts',(2.98082111183909,56.1420350791623,-6.02150845921689));
#1097=CARTESIAN_POINT('Ctrl Pts',(4.72392624669379,56.4313475253713,-7.05778202827249));
#1098=CARTESIAN_POINT('Ctrl Pts',(5.67039802278478,56.4404728321142,-8.04550844798494));
#1099=CARTESIAN_POINT('Ctrl Pts',(6.06517371390983,56.3558798545714,-8.58823529411764));
#1100=CARTESIAN_POINT('Ctrl Pts',(-6.04758703313216,56.0870636304217,-8.56405760534531));
#1101=CARTESIAN_POINT('Ctrl Pts',(-5.27984958650993,56.2674479903136,-7.51688612483842));
#1102=CARTESIAN_POINT('Ctrl Pts',(-3.66597439006602,56.025130864068,-6.21395898974963));
#1103=CARTESIAN_POINT('Ctrl Pts',(-1.03878892374386,55.6816897681126,-5.47916334160148));
#1104=CARTESIAN_POINT('Ctrl Pts',(1.03806399320225,55.6840729689193,-5.4774419546669));
#1105=CARTESIAN_POINT('Ctrl Pts',(3.00966798265306,55.9387995001651,-6.03221154790817));
#1106=CARTESIAN_POINT('Ctrl Pts',(4.74062708209051,56.1904712184279,-7.07377461672656));
#1107=CARTESIAN_POINT('Ctrl Pts',(5.66371830981645,56.1772558103685,-8.04047186509186));
#1108=CARTESIAN_POINT('Ctrl Pts',(6.04758703312758,56.0870636304226,-8.56405760534531));
#1109=CARTESIAN_POINT('Ctrl Pts',(-6.18119899642299,55.6200689927319,-8.40264374064962));
#1110=CARTESIAN_POINT('Ctrl Pts',(-5.40781120999399,55.8184626447606,-7.40663142896974));
#1111=CARTESIAN_POINT('Ctrl Pts',(-3.77649819305207,55.6563128876617,-6.12699873181406));
#1112=CARTESIAN_POINT('Ctrl Pts',(-1.071702434871,55.3668728821924,-5.39141864797774));
#1113=CARTESIAN_POINT('Ctrl Pts',(1.07147127008221,55.3697188088937,-5.39006054308202));
#1114=CARTESIAN_POINT('Ctrl Pts',(3.10022878248217,55.5829107373023,-5.94483976875236));
#1115=CARTESIAN_POINT('Ctrl Pts',(4.86527883823411,55.7702935277813,-6.97269694576695));
#1116=CARTESIAN_POINT('Ctrl Pts',(5.79450510320398,55.7192658187471,-7.90463758480969));
#1117=CARTESIAN_POINT('Ctrl Pts',(6.18119899641848,55.6200689927329,-8.40264374064961));
#1118=CARTESIAN_POINT('Ctrl Pts',(-6.52788007351583,55.4035784115798,-8.12069655744286));
#1119=CARTESIAN_POINT('Ctrl Pts',(-5.68843968562368,55.583506111837,-7.11353669391137));
#1120=CARTESIAN_POINT('Ctrl Pts',(-3.94317839135748,55.40892978669,-5.87147985372362));
#1121=CARTESIAN_POINT('Ctrl Pts',(-1.11721452208649,55.1309631480759,-5.17410715981895));
#1122=CARTESIAN_POINT('Ctrl Pts',(1.11602849610178,55.1331213214695,-5.17234120914703));
#1123=CARTESIAN_POINT('Ctrl Pts',(3.23678257801394,55.3389330557997,-5.69914136952148));
#1124=CARTESIAN_POINT('Ctrl Pts',(5.10474635661956,55.528990559449,-6.69097332666988));
#1125=CARTESIAN_POINT('Ctrl Pts',(6.10815987956528,55.4935422617093,-7.61711662567713));
#1126=CARTESIAN_POINT('Ctrl Pts',(6.52788007351136,55.4035784115808,-8.12069655744286));
#1127=CARTESIAN_POINT('Ctrl Pts',(-6.68808344669454,55.3732885071496,-8.));
#1128=CARTESIAN_POINT('Ctrl Pts',(-5.81744300356473,55.5379018688545,-6.97484929063822));
#1129=CARTESIAN_POINT('Ctrl Pts',(-4.01783666117686,55.336708090731,-5.74317530353939));
#1130=CARTESIAN_POINT('Ctrl Pts',(-1.1374203109527,55.0519000892082,-5.06497913335356));
#1131=CARTESIAN_POINT('Ctrl Pts',(1.13573511011687,55.0536875151997,-5.0628474060935));
#1132=CARTESIAN_POINT('Ctrl Pts',(3.29790496932594,55.2652494795419,-5.57586910037151));
#1133=CARTESIAN_POINT('Ctrl Pts',(5.21397276247635,55.4730036731303,-6.55457191559068));
#1134=CARTESIAN_POINT('Ctrl Pts',(6.25276322512516,55.455595188003,-7.48742464531913));
#1135=CARTESIAN_POINT('Ctrl Pts',(6.68808344669007,55.3732885071506,-8.));
#1136=CARTESIAN_POINT('Ctrl Pts',(6.68808344669007,55.3732885071506,-8.));
#1137=CARTESIAN_POINT('Ctrl Pts',(6.25276322512516,55.455595188003,-7.48742464531913));
#1138=CARTESIAN_POINT('Ctrl Pts',(5.21397276247635,55.4730036731303,-6.55457191559068));
#1139=CARTESIAN_POINT('Ctrl Pts',(3.29790496932594,55.2652494795419,-5.57586910037151));
#1140=CARTESIAN_POINT('Ctrl Pts',(1.13573511011687,55.0536875151997,-5.0628474060935));
#1141=CARTESIAN_POINT('Ctrl Pts',(-1.1374203109527,55.0519000892082,-5.06497913335356));
#1142=CARTESIAN_POINT('Ctrl Pts',(-4.01783666117686,55.336708090731,-5.74317530353939));
#1143=CARTESIAN_POINT('Ctrl Pts',(-5.81744300356473,55.5379018688545,-6.97484929063822));
#1144=CARTESIAN_POINT('Ctrl Pts',(-6.68808344669454,55.3732885071496,-8.));
#1145=CARTESIAN_POINT('Origin',(3.99680288865056E-13,20.,-8.));
#1146=CARTESIAN_POINT('',(36.0000000000004,20.,-8.));
#1147=CARTESIAN_POINT('Origin',(3.99680288865056E-13,20.,-8.));
#1148=CARTESIAN_POINT('',(31.0000000000004,20.,-3.));
#1149=CARTESIAN_POINT('Origin',(31.0000000000004,20.,-8.));
#1150=CARTESIAN_POINT('Origin',(3.99680288865056E-13,20.,-3.));
#1151=CARTESIAN_POINT('',(-35.9999999999996,20.,-8.));
#1152=CARTESIAN_POINT('Origin',(3.99680288865056E-13,20.,-8.));
#1153=CARTESIAN_POINT('Origin',(3.99680288865056E-13,20.,-8.));
#1154=CARTESIAN_POINT('Origin',(3.99680288865056E-13,20.,-3.));
#1155=CARTESIAN_POINT('',(-35.9999999999996,20.,-48.));
#1156=CARTESIAN_POINT('Origin',(3.99680288865056E-13,20.,-48.));
#1157=CARTESIAN_POINT('',(-35.9999999999996,20.,-3.));
#1158=CARTESIAN_POINT('Origin',(3.99680288865056E-13,20.,-31.7157287525381));
#1159=CARTESIAN_POINT('',(-39.9999999999996,20.,-31.7157287525381));
#1160=CARTESIAN_POINT('',(40.0000000000004,20.,-31.7157287525381));
#1161=CARTESIAN_POINT('Origin',(3.99680288865056E-13,20.,-31.7157287525381));
#1162=CARTESIAN_POINT('',(45.8578643762694,20.,-45.857864376269));
#1163=CARTESIAN_POINT('Origin',(60.0000000000004,20.,-31.7157287525381));
#1164=CARTESIAN_POINT('',(-45.8578643762687,20.,-45.857864376269));
#1165=CARTESIAN_POINT('Origin',(3.99680288865056E-13,20.,-45.857864376269));
#1166=CARTESIAN_POINT('Origin',(3.99680288865056E-13,20.,-45.857864376269));
#1167=CARTESIAN_POINT('Origin',(3.99680288865056E-13,20.,-31.7157287525381));
#1168=CARTESIAN_POINT('Origin',(3.99680288865056E-13,20.,-45.));
#1169=CARTESIAN_POINT('',(-49.9999999999996,20.,-50.));
#1170=CARTESIAN_POINT('',(-44.9999999999996,20.,-45.));
#1171=CARTESIAN_POINT('Origin',(3.99680288865056E-13,20.,-50.));
#1172=CARTESIAN_POINT('Origin',(3.99680288865056E-13,20.,0.));
#1173=CARTESIAN_POINT('',(-39.9999999999996,20.,0.));
#1174=CARTESIAN_POINT('Origin',(3.99680288865056E-13,20.,-50.5));
#1175=CARTESIAN_POINT('',(-40.9999999999996,20.,-53.));
#1176=CARTESIAN_POINT('Origin',(3.99680288865056E-13,20.,-53.));
#1177=CARTESIAN_POINT('',(-38.4999999999996,20.,-50.5));
#1178=CARTESIAN_POINT('Origin',(3.99680288865056E-13,20.,-53.));
#1179=CARTESIAN_POINT('',(-49.9999999999996,20.,-53.));
#1180=CARTESIAN_POINT('Origin',(3.99680288865056E-13,20.,-53.));
#1181=CARTESIAN_POINT('Origin',(3.99680288865056E-13,20.,-53.));
#1182=CARTESIAN_POINT('',(-49.9999999999996,20.,-53.));
#1183=CARTESIAN_POINT('Origin',(3.99680288865056E-13,20.,0.));
#1184=CARTESIAN_POINT('',(2.90000000000068,13.5000000000034,0.));
#1185=CARTESIAN_POINT('',(-6.09999999999881,13.5000000000035,0.));
#1186=CARTESIAN_POINT('',(16.9000000000012,13.5000000000034,0.));
#1187=CARTESIAN_POINT('',(-6.59999999999881,14.0000000000034,0.));
#1188=CARTESIAN_POINT('Origin',(-6.09999999999881,14.0000000000035,0.));
#1189=CARTESIAN_POINT('',(-6.59999999999984,26.0000000000003,0.));
#1190=CARTESIAN_POINT('',(-6.59999999999877,13.5000000000035,0.));
#1191=CARTESIAN_POINT('',(-6.09999999999973,26.5000000000003,0.));
#1192=CARTESIAN_POINT('Origin',(-6.09999999999984,26.0000000000003,0.));
#1193=CARTESIAN_POINT('',(2.90000000000209,26.4999999999984,0.));
#1194=CARTESIAN_POINT('',(-6.59999999999988,26.5000000000004,0.));
#1195=CARTESIAN_POINT('Origin',(2.90000000000069,20.0000000000034,0.));
#1196=CARTESIAN_POINT('Origin',(3.99680288865056E-13,20.,-3.));
#1197=CARTESIAN_POINT('',(21.4000000000004,10.5000000000013,-3.));
#1198=CARTESIAN_POINT('',(21.4000000000004,29.5000000000028,-3.));
#1199=CARTESIAN_POINT('',(21.4000000000004,24.7500000000014,-3.));
#1200=CARTESIAN_POINT('',(-11.0999999999945,29.5,-3.));
#1201=CARTESIAN_POINT('',(-5.54999999999744,29.5000000000005,-3.));
#1202=CARTESIAN_POINT('',(-11.0999999999945,10.5000000000013,-3.));
#1203=CARTESIAN_POINT('',(-11.0999999999945,15.2500000000007,-3.));
#1204=CARTESIAN_POINT('',(10.7000000000004,10.5000000000013,-3.));
#1205=CARTESIAN_POINT('Origin',(-6.09999999999881,14.0000000000035,0.));
#1206=CARTESIAN_POINT('',(-6.09999999999881,13.5000000000035,-8.5));
#1207=CARTESIAN_POINT('',(-6.09999999999881,13.5000000000035,0.));
#1208=CARTESIAN_POINT('',(-6.59999999999881,14.0000000000034,-8.5));
#1209=CARTESIAN_POINT('Origin',(-6.09999999999881,14.0000000000035,-8.5));
#1210=CARTESIAN_POINT('',(-6.59999999999881,14.0000000000034,0.));
#1211=CARTESIAN_POINT('Origin',(-6.59999999999877,13.5000000000035,0.));
#1212=CARTESIAN_POINT('',(2.90000000000068,13.5000000000034,-3.));
#1213=CARTESIAN_POINT('',(2.90000000000068,13.5000000000034,0.));
#1214=CARTESIAN_POINT('',(16.9000000000012,13.5000000000034,-3.));
#1215=CARTESIAN_POINT('',(-3.29999999999918,13.5000000000035,-3.));
#1216=CARTESIAN_POINT('',(16.9000000000013,13.5000000000034,-8.5));
#1217=CARTESIAN_POINT('',(16.9000000000012,13.5000000000034,-3.));
#1218=CARTESIAN_POINT('',(16.9000000000012,13.5000000000034,-8.5));
#1219=CARTESIAN_POINT('Origin',(-6.09999999999984,26.0000000000003,0.));
#1220=CARTESIAN_POINT('',(-6.59999999999984,26.0000000000003,-8.5));
#1221=CARTESIAN_POINT('',(-6.59999999999984,26.0000000000003,0.));
#1222=CARTESIAN_POINT('',(-6.09999999999973,26.5000000000003,-8.5));
#1223=CARTESIAN_POINT('Origin',(-6.09999999999984,26.0000000000003,-8.5));
#1224=CARTESIAN_POINT('',(-6.09999999999973,26.5000000000003,0.));
#1225=CARTESIAN_POINT('Origin',(-6.59999999999988,26.5000000000004,0.));
#1226=CARTESIAN_POINT('',(-6.59999999999877,13.5000000000035,-8.5));
#1227=CARTESIAN_POINT('Origin',(2.90000000000069,19.9999999999984,0.));
#1228=CARTESIAN_POINT('',(2.90000000000209,26.4999999999984,-3.));
#1229=CARTESIAN_POINT('Origin',(2.90000000000069,19.9999999999984,-3.));
#1230=CARTESIAN_POINT('',(2.90000000000209,26.4999999999984,0.));
#1231=CARTESIAN_POINT('Origin',(19.0500000000004,20.0000000000021,-3.));
#1232=CARTESIAN_POINT('',(18.1500000000004,20.0000000000021,-8.5));
#1233=CARTESIAN_POINT('Origin',(19.0500000000004,20.0000000000021,-8.5));
#1234=CARTESIAN_POINT('',(18.1500000000004,20.0000000000021,-3.));
#1235=CARTESIAN_POINT('',(18.1500000000004,20.0000000000021,-3.));
#1236=CARTESIAN_POINT('Origin',(19.0500000000004,20.0000000000021,-3.));
#1237=CARTESIAN_POINT('Origin',(-8.7499999999996,19.9999999999992,-3.));
#1238=CARTESIAN_POINT('',(-9.6499999999996,19.9999999999992,-8.5));
#1239=CARTESIAN_POINT('Origin',(-8.7499999999996,19.9999999999992,-8.5));
#1240=CARTESIAN_POINT('',(-9.6499999999996,19.9999999999992,-3.));
#1241=CARTESIAN_POINT('',(-9.6499999999996,19.9999999999992,-3.));
#1242=CARTESIAN_POINT('Origin',(-8.7499999999996,19.9999999999992,-3.));
#1243=CARTESIAN_POINT('Origin',(16.9000000000012,13.5000000000034,-3.));
#1244=CARTESIAN_POINT('',(16.9000000000001,26.4999999999953,-3.));
#1245=CARTESIAN_POINT('',(16.900000000001,16.7500000000025,-3.));
#1246=CARTESIAN_POINT('',(16.9000000000001,26.4999999999953,-8.5));
#1247=CARTESIAN_POINT('',(16.9000000000001,26.4999999999953,-3.));
#1248=CARTESIAN_POINT('',(16.9000000000001,26.4999999999953,-8.5));
#1249=CARTESIAN_POINT('Origin',(21.4000000000004,29.5000000000028,-3.));
#1250=CARTESIAN_POINT('',(21.4000000000004,10.5000000000013,-8.5));
#1251=CARTESIAN_POINT('',(21.4000000000004,10.5000000000013,-3.));
#1252=CARTESIAN_POINT('',(21.4000000000004,29.5000000000028,-8.5));
#1253=CARTESIAN_POINT('',(21.4000000000004,29.5000000000028,-8.5));
#1254=CARTESIAN_POINT('',(21.4000000000004,29.5000000000028,-3.));
#1255=CARTESIAN_POINT('Origin',(-11.0999999999945,29.5,-3.));
#1256=CARTESIAN_POINT('',(-11.0999999999945,29.5,-8.5));
#1257=CARTESIAN_POINT('',(-11.0999999999945,29.5,-8.5));
#1258=CARTESIAN_POINT('',(-11.0999999999945,29.5,-3.));
#1259=CARTESIAN_POINT('Origin',(-11.0999999999945,10.5000000000013,-3.));
#1260=CARTESIAN_POINT('',(-11.0999999999945,10.5000000000013,-8.5));
#1261=CARTESIAN_POINT('',(-11.0999999999945,10.5000000000013,-8.5));
#1262=CARTESIAN_POINT('',(-11.0999999999945,10.5000000000013,-3.));
#1263=CARTESIAN_POINT('Origin',(21.4000000000004,10.5000000000013,-3.));
#1264=CARTESIAN_POINT('',(21.4000000000004,10.5000000000013,-8.5));
#1265=CARTESIAN_POINT('Origin',(5.15000000000297,20.0000000000021,-8.5));
#1266=CARTESIAN_POINT('',(-6.59999999999988,26.5000000000004,-8.5));
#1267=CARTESIAN_POINT('Origin',(3.99680288865056E-13,20.,-3.));
#1268=CARTESIAN_POINT('Origin',(3.99680288865056E-13,20.,-3.));
#1269=CARTESIAN_POINT('Origin',(9.40000000000013,26.499999999997,0.));
#1270=CARTESIAN_POINT('',(8.45000000000096,26.4999999999972,-3.));
#1271=CARTESIAN_POINT('Origin',(3.99680288865056E-13,20.,-3.));
#1272=UNCERTAINTY_MEASURE_WITH_UNIT(LENGTH_MEASURE(0.01),#1276,
'DISTANCE_ACCURACY_VALUE',
'Maximum model space distance between geometric entities at asserted c
onnectivities');
#1273=UNCERTAINTY_MEASURE_WITH_UNIT(LENGTH_MEASURE(0.01),#1276,
'DISTANCE_ACCURACY_VALUE',
'Maximum model space distance between geometric entities at asserted c
onnectivities');
#1274=(
GEOMETRIC_REPRESENTATION_CONTEXT(3)
GLOBAL_UNCERTAINTY_ASSIGNED_CONTEXT((#1272))
GLOBAL_UNIT_ASSIGNED_CONTEXT((#1276,#1278,#1279))
REPRESENTATION_CONTEXT('','3D')
);
#1275=(
GEOMETRIC_REPRESENTATION_CONTEXT(3)
GLOBAL_UNCERTAINTY_ASSIGNED_CONTEXT((#1273))
GLOBAL_UNIT_ASSIGNED_CONTEXT((#1276,#1278,#1279))
REPRESENTATION_CONTEXT('','3D')
);
#1276=(
LENGTH_UNIT()
NAMED_UNIT(*)
SI_UNIT(.MILLI.,.METRE.)
);
#1277=(
LENGTH_UNIT()
NAMED_UNIT(*)
SI_UNIT($,.METRE.)
);
#1278=(
NAMED_UNIT(*)
PLANE_ANGLE_UNIT()
SI_UNIT($,.RADIAN.)
);
#1279=(
NAMED_UNIT(*)
SI_UNIT($,.STERADIAN.)
SOLID_ANGLE_UNIT()
);
#1280=SHAPE_DEFINITION_REPRESENTATION(#1281,#1282);
#1281=PRODUCT_DEFINITION_SHAPE('',$,#1284);
#1282=SHAPE_REPRESENTATION('',(#573),#1274);
#1283=PRODUCT_DEFINITION_CONTEXT('part definition',#1288,'design');
#1284=PRODUCT_DEFINITION('2026-08-14-21-40-57-027','base',#1285,#1283);
#1285=PRODUCT_DEFINITION_FORMATION('',$,#1290);
#1286=PRODUCT_RELATED_PRODUCT_CATEGORY('base','base',(#1290));
#1287=APPLICATION_PROTOCOL_DEFINITION('international standard',
'automotive_design',2009,#1288);
#1288=APPLICATION_CONTEXT(
'Core Data for Automotive Mechanical Design Process');
#1289=PRODUCT_CONTEXT('part definition',#1288,'mechanical');
#1290=PRODUCT('2026-08-14-21-40-57-027','base',$,(#1289));
#1291=PRESENTATION_STYLE_ASSIGNMENT((#1292));
#1292=SURFACE_STYLE_USAGE(.BOTH.,#1293);
#1293=SURFACE_SIDE_STYLE('',(#1294));
#1294=SURFACE_STYLE_FILL_AREA(#1295);
#1295=FILL_AREA_STYLE('Steel - Satin',(#1296));
#1296=FILL_AREA_STYLE_COLOUR('Steel - Satin',#1297);
#1297=COLOUR_RGB('Steel - Satin',0.627450980392157,0.627450980392157,0.627450980392157);
ENDSEC;
END-ISO-10303-21;
