ISO-10303-21;
HEADER;
/* Generated by software containing ST-Developer
 * from STEP Tools, Inc. (www.steptools.com) 
 */

FILE_DESCRIPTION(
/* description */ (''),
/* implementation_level */ '2;1');

FILE_NAME(
/* name */ 'Cover.step',
/* time_stamp */ '2026-08-14T21:40:39+05:30',
/* author */ (''),
/* organization */ (''),
/* preprocessor_version */ 'ST-DEVELOPER v20.1',
/* originating_system */ 'Autodesk Translation Framework v15.8.0.0',
/* authorisation */ '');

FILE_SCHEMA (('AUTOMOTIVE_DESIGN { 1 0 10303 214 3 1 1 }'));
ENDSEC;

DATA;
#10=MECHANICAL_DESIGN_GEOMETRIC_PRESENTATION_REPRESENTATION('',(#13),#889);
#11=SHAPE_REPRESENTATION_RELATIONSHIP('SRR','None',#896,#12);
#12=ADVANCED_BREP_SHAPE_REPRESENTATION('',(#14),#888);
#13=STYLED_ITEM('',(#906),#14);
#14=MANIFOLD_SOLID_BREP('Body1',#487);
#15=CONICAL_SURFACE('',#551,1.75,0.785398163397451);
#16=CONICAL_SURFACE('',#558,1.75,0.785398163397451);
#17=FACE_BOUND('',#128,.T.);
#18=FACE_BOUND('',#129,.T.);
#19=FACE_BOUND('',#132,.T.);
#20=FACE_BOUND('',#133,.T.);
#21=FACE_BOUND('',#134,.T.);
#22=FACE_BOUND('',#135,.T.);
#23=PLANE('',#509);
#24=PLANE('',#518);
#25=PLANE('',#548);
#26=PLANE('',#550);
#27=PLANE('',#557);
#28=PLANE('',#564);
#29=PLANE('',#570);
#30=PLANE('',#572);
#31=LINE('',#756,#57);
#32=LINE('',#763,#58);
#33=LINE('',#767,#59);
#34=LINE('',#771,#60);
#35=LINE('',#775,#61);
#36=LINE('',#786,#62);
#37=LINE('',#790,#63);
#38=LINE('',#794,#64);
#39=LINE('',#798,#65);
#40=LINE('',#807,#66);
#41=LINE('',#812,#67);
#42=LINE('',#821,#68);
#43=LINE('',#829,#69);
#44=LINE('',#837,#70);
#45=LINE('',#841,#71);
#46=LINE('',#842,#72);
#47=LINE('',#844,#73);
#48=LINE('',#846,#74);
#49=LINE('',#848,#75);
#50=LINE('',#853,#76);
#51=LINE('',#857,#77);
#52=LINE('',#866,#78);
#53=LINE('',#870,#79);
#54=LINE('',#880,#80);
#55=LINE('',#882,#81);
#56=LINE('',#884,#82);
#57=VECTOR('',#587,6.5);
#58=VECTOR('',#594,10.);
#59=VECTOR('',#597,10.);
#60=VECTOR('',#600,10.);
#61=VECTOR('',#603,10.);
#62=VECTOR('',#616,10.);
#63=VECTOR('',#619,10.);
#64=VECTOR('',#622,10.);
#65=VECTOR('',#625,10.);
#66=VECTOR('',#636,0.999999999999996);
#67=VECTOR('',#641,10.);
#68=VECTOR('',#654,10.);
#69=VECTOR('',#665,10.);
#70=VECTOR('',#676,10.);
#71=VECTOR('',#683,10.);
#72=VECTOR('',#684,10.);
#73=VECTOR('',#687,10.);
#74=VECTOR('',#690,10.);
#75=VECTOR('',#693,10.);
#76=VECTOR('',#698,1.75);
#77=VECTOR('',#703,2.);
#78=VECTOR('',#714,1.75);
#79=VECTOR('',#719,2.);
#80=VECTOR('',#736,10.);
#81=VECTOR('',#739,10.);
#82=VECTOR('',#742,10.);
#83=CYLINDRICAL_SURFACE('',#506,6.5);
#84=CYLINDRICAL_SURFACE('',#526,0.999999999999996);
#85=CYLINDRICAL_SURFACE('',#527,1.);
#86=CYLINDRICAL_SURFACE('',#533,1.);
#87=CYLINDRICAL_SURFACE('',#538,1.);
#88=CYLINDRICAL_SURFACE('',#543,1.);
#89=CYLINDRICAL_SURFACE('',#547,5.);
#90=CYLINDRICAL_SURFACE('',#549,5.00000000000001);
#91=CYLINDRICAL_SURFACE('',#554,2.);
#92=CYLINDRICAL_SURFACE('',#561,2.);
#93=CYLINDRICAL_SURFACE('',#569,4.99999999999998);
#94=CYLINDRICAL_SURFACE('',#571,5.);
#95=FACE_OUTER_BOUND('',#125,.T.);
#96=FACE_OUTER_BOUND('',#126,.T.);
#97=FACE_OUTER_BOUND('',#127,.T.);
#98=FACE_OUTER_BOUND('',#130,.T.);
#99=FACE_OUTER_BOUND('',#131,.T.);
#100=FACE_OUTER_BOUND('',#136,.T.);
#101=FACE_OUTER_BOUND('',#137,.T.);
#102=FACE_OUTER_BOUND('',#138,.T.);
#103=FACE_OUTER_BOUND('',#139,.T.);
#104=FACE_OUTER_BOUND('',#140,.T.);
#105=FACE_OUTER_BOUND('',#141,.T.);
#106=FACE_OUTER_BOUND('',#142,.T.);
#107=FACE_OUTER_BOUND('',#143,.T.);
#108=FACE_OUTER_BOUND('',#144,.T.);
#109=FACE_OUTER_BOUND('',#145,.T.);
#110=FACE_OUTER_BOUND('',#146,.T.);
#111=FACE_OUTER_BOUND('',#147,.T.);
#112=FACE_OUTER_BOUND('',#148,.T.);
#113=FACE_OUTER_BOUND('',#149,.T.);
#114=FACE_OUTER_BOUND('',#150,.T.);
#115=FACE_OUTER_BOUND('',#151,.T.);
#116=FACE_OUTER_BOUND('',#152,.T.);
#117=FACE_OUTER_BOUND('',#153,.T.);
#118=FACE_OUTER_BOUND('',#154,.T.);
#119=FACE_OUTER_BOUND('',#155,.T.);
#120=FACE_OUTER_BOUND('',#156,.T.);
#121=FACE_OUTER_BOUND('',#157,.T.);
#122=FACE_OUTER_BOUND('',#158,.T.);
#123=FACE_OUTER_BOUND('',#159,.T.);
#124=FACE_OUTER_BOUND('',#160,.T.);
#125=EDGE_LOOP('',(#313,#314,#315,#316,#317));
#126=EDGE_LOOP('',(#318,#319,#320,#321,#322,#323));
#127=EDGE_LOOP('',(#324,#325,#326,#327,#328,#329,#330,#331));
#128=EDGE_LOOP('',(#332));
#129=EDGE_LOOP('',(#333));
#130=EDGE_LOOP('',(#334,#335,#336,#337,#338));
#131=EDGE_LOOP('',(#339,#340,#341,#342,#343,#344,#345,#346));
#132=EDGE_LOOP('',(#347));
#133=EDGE_LOOP('',(#348));
#134=EDGE_LOOP('',(#349));
#135=EDGE_LOOP('',(#350));
#136=EDGE_LOOP('',(#351,#352,#353,#354));
#137=EDGE_LOOP('',(#355,#356,#357,#358));
#138=EDGE_LOOP('',(#359,#360,#361,#362));
#139=EDGE_LOOP('',(#363,#364,#365,#366));
#140=EDGE_LOOP('',(#367,#368,#369,#370));
#141=EDGE_LOOP('',(#371,#372,#373,#374));
#142=EDGE_LOOP('',(#375,#376,#377,#378));
#143=EDGE_LOOP('',(#379,#380,#381,#382));
#144=EDGE_LOOP('',(#383,#384,#385,#386));
#145=EDGE_LOOP('',(#387,#388,#389,#390));
#146=EDGE_LOOP('',(#391,#392,#393,#394));
#147=EDGE_LOOP('',(#395,#396,#397,#398));
#148=EDGE_LOOP('',(#399,#400,#401,#402));
#149=EDGE_LOOP('',(#403,#404,#405,#406));
#150=EDGE_LOOP('',(#407,#408,#409,#410,#411));
#151=EDGE_LOOP('',(#412));
#152=EDGE_LOOP('',(#413,#414,#415,#416));
#153=EDGE_LOOP('',(#417,#418,#419,#420,#421));
#154=EDGE_LOOP('',(#422));
#155=EDGE_LOOP('',(#423,#424,#425,#426,#427));
#156=EDGE_LOOP('',(#428,#429,#430,#431,#432));
#157=EDGE_LOOP('',(#433,#434,#435,#436));
#158=EDGE_LOOP('',(#437,#438,#439,#440));
#159=EDGE_LOOP('',(#441,#442,#443,#444));
#160=EDGE_LOOP('',(#445,#446,#447,#448));
#161=CIRCLE('',#502,7.);
#162=CIRCLE('',#503,0.5);
#163=CIRCLE('',#504,6.5);
#164=CIRCLE('',#505,6.5);
#165=CIRCLE('',#507,6.5);
#166=CIRCLE('',#508,6.5);
#167=CIRCLE('',#510,4.00000000000001);
#168=CIRCLE('',#511,4.);
#169=CIRCLE('',#512,4.);
#170=CIRCLE('',#513,3.99999999999998);
#171=CIRCLE('',#514,0.999999999999996);
#172=CIRCLE('',#516,7.);
#173=CIRCLE('',#517,0.5);
#174=CIRCLE('',#519,5.);
#175=CIRCLE('',#520,5.00000000000001);
#176=CIRCLE('',#521,4.99999999999998);
#177=CIRCLE('',#522,5.);
#178=CIRCLE('',#523,2.2);
#179=CIRCLE('',#524,2.2);
#180=CIRCLE('',#525,0.999999999999996);
#181=CIRCLE('',#528,1.);
#182=CIRCLE('',#529,1.);
#183=CIRCLE('',#531,0.999999999999992);
#184=CIRCLE('',#532,5.00000000000001);
#185=CIRCLE('',#534,1.00000000000001);
#186=CIRCLE('',#536,0.999999999999996);
#187=CIRCLE('',#537,5.);
#188=CIRCLE('',#539,1.);
#189=CIRCLE('',#541,0.999999999999996);
#190=CIRCLE('',#542,5.);
#191=CIRCLE('',#544,0.999999999999996);
#192=CIRCLE('',#546,4.99999999999998);
#193=CIRCLE('',#552,1.5);
#194=CIRCLE('',#553,2.);
#195=CIRCLE('',#555,2.);
#196=CIRCLE('',#556,2.);
#197=CIRCLE('',#559,1.5);
#198=CIRCLE('',#560,2.);
#199=CIRCLE('',#562,2.);
#200=CIRCLE('',#563,2.);
#201=CIRCLE('',#566,0.2);
#202=CIRCLE('',#568,0.2);
#203=VERTEX_POINT('',#747);
#204=VERTEX_POINT('',#749);
#205=VERTEX_POINT('',#751);
#206=VERTEX_POINT('',#755);
#207=VERTEX_POINT('',#757);
#208=VERTEX_POINT('',#761);
#209=VERTEX_POINT('',#762);
#210=VERTEX_POINT('',#764);
#211=VERTEX_POINT('',#766);
#212=VERTEX_POINT('',#768);
#213=VERTEX_POINT('',#770);
#214=VERTEX_POINT('',#772);
#215=VERTEX_POINT('',#774);
#216=VERTEX_POINT('',#777);
#217=VERTEX_POINT('',#780);
#218=VERTEX_POINT('',#784);
#219=VERTEX_POINT('',#785);
#220=VERTEX_POINT('',#787);
#221=VERTEX_POINT('',#789);
#222=VERTEX_POINT('',#791);
#223=VERTEX_POINT('',#793);
#224=VERTEX_POINT('',#795);
#225=VERTEX_POINT('',#797);
#226=VERTEX_POINT('',#800);
#227=VERTEX_POINT('',#802);
#228=VERTEX_POINT('',#804);
#229=VERTEX_POINT('',#809);
#230=VERTEX_POINT('',#811);
#231=VERTEX_POINT('',#815);
#232=VERTEX_POINT('',#819);
#233=VERTEX_POINT('',#823);
#234=VERTEX_POINT('',#827);
#235=VERTEX_POINT('',#831);
#236=VERTEX_POINT('',#835);
#237=VERTEX_POINT('',#850);
#238=VERTEX_POINT('',#852);
#239=VERTEX_POINT('',#856);
#240=VERTEX_POINT('',#858);
#241=VERTEX_POINT('',#863);
#242=VERTEX_POINT('',#865);
#243=VERTEX_POINT('',#869);
#244=VERTEX_POINT('',#871);
#245=EDGE_CURVE('',#203,#203,#161,.T.);
#246=EDGE_CURVE('',#203,#204,#162,.T.);
#247=EDGE_CURVE('',#204,#205,#163,.T.);
#248=EDGE_CURVE('',#205,#204,#164,.T.);
#249=EDGE_CURVE('',#205,#206,#31,.T.);
#250=EDGE_CURVE('',#207,#206,#165,.T.);
#251=EDGE_CURVE('',#206,#207,#166,.T.);
#252=EDGE_CURVE('',#208,#209,#32,.T.);
#253=EDGE_CURVE('',#210,#208,#167,.T.);
#254=EDGE_CURVE('',#211,#210,#33,.T.);
#255=EDGE_CURVE('',#212,#211,#168,.T.);
#256=EDGE_CURVE('',#213,#212,#34,.T.);
#257=EDGE_CURVE('',#214,#213,#169,.T.);
#258=EDGE_CURVE('',#215,#214,#35,.T.);
#259=EDGE_CURVE('',#209,#215,#170,.T.);
#260=EDGE_CURVE('',#216,#216,#171,.T.);
#261=EDGE_CURVE('',#217,#217,#172,.T.);
#262=EDGE_CURVE('',#217,#207,#173,.T.);
#263=EDGE_CURVE('',#218,#219,#36,.T.);
#264=EDGE_CURVE('',#220,#218,#174,.T.);
#265=EDGE_CURVE('',#221,#220,#37,.T.);
#266=EDGE_CURVE('',#222,#221,#175,.T.);
#267=EDGE_CURVE('',#223,#222,#38,.T.);
#268=EDGE_CURVE('',#224,#223,#176,.T.);
#269=EDGE_CURVE('',#225,#224,#39,.T.);
#270=EDGE_CURVE('',#219,#225,#177,.T.);
#271=EDGE_CURVE('',#226,#226,#178,.T.);
#272=EDGE_CURVE('',#227,#227,#179,.T.);
#273=EDGE_CURVE('',#228,#228,#180,.T.);
#274=EDGE_CURVE('',#228,#216,#40,.T.);
#275=EDGE_CURVE('',#209,#229,#181,.T.);
#276=EDGE_CURVE('',#229,#230,#41,.T.);
#277=EDGE_CURVE('',#230,#208,#182,.T.);
#278=EDGE_CURVE('',#231,#210,#183,.T.);
#279=EDGE_CURVE('',#230,#231,#184,.T.);
#280=EDGE_CURVE('',#232,#211,#185,.T.);
#281=EDGE_CURVE('',#231,#232,#42,.T.);
#282=EDGE_CURVE('',#233,#212,#186,.T.);
#283=EDGE_CURVE('',#232,#233,#187,.T.);
#284=EDGE_CURVE('',#234,#213,#188,.T.);
#285=EDGE_CURVE('',#233,#234,#43,.T.);
#286=EDGE_CURVE('',#235,#214,#189,.T.);
#287=EDGE_CURVE('',#234,#235,#190,.T.);
#288=EDGE_CURVE('',#236,#215,#191,.T.);
#289=EDGE_CURVE('',#235,#236,#44,.T.);
#290=EDGE_CURVE('',#236,#229,#192,.T.);
#291=EDGE_CURVE('',#220,#232,#45,.T.);
#292=EDGE_CURVE('',#218,#233,#46,.T.);
#293=EDGE_CURVE('',#221,#231,#47,.T.);
#294=EDGE_CURVE('',#222,#230,#48,.T.);
#295=EDGE_CURVE('',#223,#229,#49,.T.);
#296=EDGE_CURVE('',#237,#237,#193,.T.);
#297=EDGE_CURVE('',#237,#238,#50,.T.);
#298=EDGE_CURVE('',#238,#238,#194,.T.);
#299=EDGE_CURVE('',#238,#239,#51,.T.);
#300=EDGE_CURVE('',#240,#239,#195,.T.);
#301=EDGE_CURVE('',#239,#240,#196,.T.);
#302=EDGE_CURVE('',#241,#241,#197,.T.);
#303=EDGE_CURVE('',#241,#242,#52,.T.);
#304=EDGE_CURVE('',#242,#242,#198,.T.);
#305=EDGE_CURVE('',#242,#243,#53,.T.);
#306=EDGE_CURVE('',#244,#243,#199,.T.);
#307=EDGE_CURVE('',#243,#244,#200,.T.);
#308=EDGE_CURVE('',#244,#226,#201,.T.);
#309=EDGE_CURVE('',#240,#227,#202,.T.);
#310=EDGE_CURVE('',#224,#236,#54,.T.);
#311=EDGE_CURVE('',#225,#235,#55,.T.);
#312=EDGE_CURVE('',#219,#234,#56,.T.);
#313=ORIENTED_EDGE('',*,*,#245,.T.);
#314=ORIENTED_EDGE('',*,*,#246,.T.);
#315=ORIENTED_EDGE('',*,*,#247,.T.);
#316=ORIENTED_EDGE('',*,*,#248,.T.);
#317=ORIENTED_EDGE('',*,*,#246,.F.);
#318=ORIENTED_EDGE('',*,*,#248,.F.);
#319=ORIENTED_EDGE('',*,*,#249,.T.);
#320=ORIENTED_EDGE('',*,*,#250,.F.);
#321=ORIENTED_EDGE('',*,*,#251,.F.);
#322=ORIENTED_EDGE('',*,*,#249,.F.);
#323=ORIENTED_EDGE('',*,*,#247,.F.);
#324=ORIENTED_EDGE('',*,*,#252,.F.);
#325=ORIENTED_EDGE('',*,*,#253,.F.);
#326=ORIENTED_EDGE('',*,*,#254,.F.);
#327=ORIENTED_EDGE('',*,*,#255,.F.);
#328=ORIENTED_EDGE('',*,*,#256,.F.);
#329=ORIENTED_EDGE('',*,*,#257,.F.);
#330=ORIENTED_EDGE('',*,*,#258,.F.);
#331=ORIENTED_EDGE('',*,*,#259,.F.);
#332=ORIENTED_EDGE('',*,*,#260,.T.);
#333=ORIENTED_EDGE('',*,*,#245,.F.);
#334=ORIENTED_EDGE('',*,*,#261,.T.);
#335=ORIENTED_EDGE('',*,*,#262,.T.);
#336=ORIENTED_EDGE('',*,*,#250,.T.);
#337=ORIENTED_EDGE('',*,*,#251,.T.);
#338=ORIENTED_EDGE('',*,*,#262,.F.);
#339=ORIENTED_EDGE('',*,*,#263,.F.);
#340=ORIENTED_EDGE('',*,*,#264,.F.);
#341=ORIENTED_EDGE('',*,*,#265,.F.);
#342=ORIENTED_EDGE('',*,*,#266,.F.);
#343=ORIENTED_EDGE('',*,*,#267,.F.);
#344=ORIENTED_EDGE('',*,*,#268,.F.);
#345=ORIENTED_EDGE('',*,*,#269,.F.);
#346=ORIENTED_EDGE('',*,*,#270,.F.);
#347=ORIENTED_EDGE('',*,*,#271,.F.);
#348=ORIENTED_EDGE('',*,*,#272,.F.);
#349=ORIENTED_EDGE('',*,*,#273,.T.);
#350=ORIENTED_EDGE('',*,*,#261,.F.);
#351=ORIENTED_EDGE('',*,*,#273,.F.);
#352=ORIENTED_EDGE('',*,*,#274,.T.);
#353=ORIENTED_EDGE('',*,*,#260,.F.);
#354=ORIENTED_EDGE('',*,*,#274,.F.);
#355=ORIENTED_EDGE('',*,*,#275,.T.);
#356=ORIENTED_EDGE('',*,*,#276,.T.);
#357=ORIENTED_EDGE('',*,*,#277,.T.);
#358=ORIENTED_EDGE('',*,*,#252,.T.);
#359=ORIENTED_EDGE('',*,*,#278,.T.);
#360=ORIENTED_EDGE('',*,*,#253,.T.);
#361=ORIENTED_EDGE('',*,*,#277,.F.);
#362=ORIENTED_EDGE('',*,*,#279,.T.);
#363=ORIENTED_EDGE('',*,*,#280,.T.);
#364=ORIENTED_EDGE('',*,*,#254,.T.);
#365=ORIENTED_EDGE('',*,*,#278,.F.);
#366=ORIENTED_EDGE('',*,*,#281,.T.);
#367=ORIENTED_EDGE('',*,*,#282,.T.);
#368=ORIENTED_EDGE('',*,*,#255,.T.);
#369=ORIENTED_EDGE('',*,*,#280,.F.);
#370=ORIENTED_EDGE('',*,*,#283,.T.);
#371=ORIENTED_EDGE('',*,*,#284,.T.);
#372=ORIENTED_EDGE('',*,*,#256,.T.);
#373=ORIENTED_EDGE('',*,*,#282,.F.);
#374=ORIENTED_EDGE('',*,*,#285,.T.);
#375=ORIENTED_EDGE('',*,*,#286,.T.);
#376=ORIENTED_EDGE('',*,*,#257,.T.);
#377=ORIENTED_EDGE('',*,*,#284,.F.);
#378=ORIENTED_EDGE('',*,*,#287,.T.);
#379=ORIENTED_EDGE('',*,*,#288,.T.);
#380=ORIENTED_EDGE('',*,*,#258,.T.);
#381=ORIENTED_EDGE('',*,*,#286,.F.);
#382=ORIENTED_EDGE('',*,*,#289,.T.);
#383=ORIENTED_EDGE('',*,*,#275,.F.);
#384=ORIENTED_EDGE('',*,*,#259,.T.);
#385=ORIENTED_EDGE('',*,*,#288,.F.);
#386=ORIENTED_EDGE('',*,*,#290,.T.);
#387=ORIENTED_EDGE('',*,*,#283,.F.);
#388=ORIENTED_EDGE('',*,*,#291,.F.);
#389=ORIENTED_EDGE('',*,*,#264,.T.);
#390=ORIENTED_EDGE('',*,*,#292,.T.);
#391=ORIENTED_EDGE('',*,*,#281,.F.);
#392=ORIENTED_EDGE('',*,*,#293,.F.);
#393=ORIENTED_EDGE('',*,*,#265,.T.);
#394=ORIENTED_EDGE('',*,*,#291,.T.);
#395=ORIENTED_EDGE('',*,*,#279,.F.);
#396=ORIENTED_EDGE('',*,*,#294,.F.);
#397=ORIENTED_EDGE('',*,*,#266,.T.);
#398=ORIENTED_EDGE('',*,*,#293,.T.);
#399=ORIENTED_EDGE('',*,*,#276,.F.);
#400=ORIENTED_EDGE('',*,*,#295,.F.);
#401=ORIENTED_EDGE('',*,*,#267,.T.);
#402=ORIENTED_EDGE('',*,*,#294,.T.);
#403=ORIENTED_EDGE('',*,*,#296,.T.);
#404=ORIENTED_EDGE('',*,*,#297,.T.);
#405=ORIENTED_EDGE('',*,*,#298,.T.);
#406=ORIENTED_EDGE('',*,*,#297,.F.);
#407=ORIENTED_EDGE('',*,*,#298,.F.);
#408=ORIENTED_EDGE('',*,*,#299,.T.);
#409=ORIENTED_EDGE('',*,*,#300,.F.);
#410=ORIENTED_EDGE('',*,*,#301,.F.);
#411=ORIENTED_EDGE('',*,*,#299,.F.);
#412=ORIENTED_EDGE('',*,*,#296,.F.);
#413=ORIENTED_EDGE('',*,*,#302,.T.);
#414=ORIENTED_EDGE('',*,*,#303,.T.);
#415=ORIENTED_EDGE('',*,*,#304,.T.);
#416=ORIENTED_EDGE('',*,*,#303,.F.);
#417=ORIENTED_EDGE('',*,*,#304,.F.);
#418=ORIENTED_EDGE('',*,*,#305,.T.);
#419=ORIENTED_EDGE('',*,*,#306,.F.);
#420=ORIENTED_EDGE('',*,*,#307,.F.);
#421=ORIENTED_EDGE('',*,*,#305,.F.);
#422=ORIENTED_EDGE('',*,*,#302,.F.);
#423=ORIENTED_EDGE('',*,*,#307,.T.);
#424=ORIENTED_EDGE('',*,*,#308,.T.);
#425=ORIENTED_EDGE('',*,*,#271,.T.);
#426=ORIENTED_EDGE('',*,*,#308,.F.);
#427=ORIENTED_EDGE('',*,*,#306,.T.);
#428=ORIENTED_EDGE('',*,*,#301,.T.);
#429=ORIENTED_EDGE('',*,*,#309,.T.);
#430=ORIENTED_EDGE('',*,*,#272,.T.);
#431=ORIENTED_EDGE('',*,*,#309,.F.);
#432=ORIENTED_EDGE('',*,*,#300,.T.);
#433=ORIENTED_EDGE('',*,*,#290,.F.);
#434=ORIENTED_EDGE('',*,*,#310,.F.);
#435=ORIENTED_EDGE('',*,*,#268,.T.);
#436=ORIENTED_EDGE('',*,*,#295,.T.);
#437=ORIENTED_EDGE('',*,*,#289,.F.);
#438=ORIENTED_EDGE('',*,*,#311,.F.);
#439=ORIENTED_EDGE('',*,*,#269,.T.);
#440=ORIENTED_EDGE('',*,*,#310,.T.);
#441=ORIENTED_EDGE('',*,*,#287,.F.);
#442=ORIENTED_EDGE('',*,*,#312,.F.);
#443=ORIENTED_EDGE('',*,*,#270,.T.);
#444=ORIENTED_EDGE('',*,*,#311,.T.);
#445=ORIENTED_EDGE('',*,*,#285,.F.);
#446=ORIENTED_EDGE('',*,*,#292,.F.);
#447=ORIENTED_EDGE('',*,*,#263,.T.);
#448=ORIENTED_EDGE('',*,*,#312,.T.);
#449=TOROIDAL_SURFACE('',#501,7.,0.5);
#450=TOROIDAL_SURFACE('',#515,7.,0.5);
#451=TOROIDAL_SURFACE('',#530,4.00000000000001,1.);
#452=TOROIDAL_SURFACE('',#535,4.,1.);
#453=TOROIDAL_SURFACE('',#540,4.,1.);
#454=TOROIDAL_SURFACE('',#545,3.99999999999998,1.);
#455=TOROIDAL_SURFACE('',#565,2.2,0.2);
#456=TOROIDAL_SURFACE('',#567,2.2,0.2);
#457=ADVANCED_FACE('',(#95),#449,.T.);
#458=ADVANCED_FACE('',(#96),#83,.F.);
#459=ADVANCED_FACE('',(#97,#17,#18),#23,.T.);
#460=ADVANCED_FACE('',(#98),#450,.T.);
#461=ADVANCED_FACE('',(#99,#19,#20,#21,#22),#24,.F.);
#462=ADVANCED_FACE('',(#100),#84,.F.);
#463=ADVANCED_FACE('',(#101),#85,.T.);
#464=ADVANCED_FACE('',(#102),#451,.T.);
#465=ADVANCED_FACE('',(#103),#86,.T.);
#466=ADVANCED_FACE('',(#104),#452,.T.);
#467=ADVANCED_FACE('',(#105),#87,.T.);
#468=ADVANCED_FACE('',(#106),#453,.T.);
#469=ADVANCED_FACE('',(#107),#88,.T.);
#470=ADVANCED_FACE('',(#108),#454,.T.);
#471=ADVANCED_FACE('',(#109),#89,.T.);
#472=ADVANCED_FACE('',(#110),#25,.T.);
#473=ADVANCED_FACE('',(#111),#90,.T.);
#474=ADVANCED_FACE('',(#112),#26,.T.);
#475=ADVANCED_FACE('',(#113),#15,.T.);
#476=ADVANCED_FACE('',(#114),#91,.T.);
#477=ADVANCED_FACE('',(#115),#27,.T.);
#478=ADVANCED_FACE('',(#116),#16,.T.);
#479=ADVANCED_FACE('',(#117),#92,.T.);
#480=ADVANCED_FACE('',(#118),#28,.T.);
#481=ADVANCED_FACE('',(#119),#455,.F.);
#482=ADVANCED_FACE('',(#120),#456,.F.);
#483=ADVANCED_FACE('',(#121),#93,.T.);
#484=ADVANCED_FACE('',(#122),#29,.T.);
#485=ADVANCED_FACE('',(#123),#94,.T.);
#486=ADVANCED_FACE('',(#124),#30,.T.);
#487=CLOSED_SHELL('',(#457,#458,#459,#460,#461,#462,#463,#464,#465,#466,
#467,#468,#469,#470,#471,#472,#473,#474,#475,#476,#477,#478,#479,#480,#481,
#482,#483,#484,#485,#486));
#488=DERIVED_UNIT_ELEMENT(#490,1.);
#489=DERIVED_UNIT_ELEMENT(#891,-3.);
#490=(
MASS_UNIT()
NAMED_UNIT(*)
SI_UNIT(.KILO.,.GRAM.)
);
#491=DERIVED_UNIT((#488,#489));
#492=MEASURE_REPRESENTATION_ITEM('density measure',
POSITIVE_RATIO_MEASURE(7850.),#491);
#493=PROPERTY_DEFINITION_REPRESENTATION(#498,#495);
#494=PROPERTY_DEFINITION_REPRESENTATION(#499,#496);
#495=REPRESENTATION('material name',(#497),#888);
#496=REPRESENTATION('density',(#492),#888);
#497=DESCRIPTIVE_REPRESENTATION_ITEM('Steel','Steel');
#498=PROPERTY_DEFINITION('material property','material name',#898);
#499=PROPERTY_DEFINITION('material property','density of part',#898);
#500=AXIS2_PLACEMENT_3D('',#745,#573,#574);
#501=AXIS2_PLACEMENT_3D('',#746,#575,#576);
#502=AXIS2_PLACEMENT_3D('',#748,#577,#578);
#503=AXIS2_PLACEMENT_3D('',#750,#579,#580);
#504=AXIS2_PLACEMENT_3D('',#752,#581,#582);
#505=AXIS2_PLACEMENT_3D('',#753,#583,#584);
#506=AXIS2_PLACEMENT_3D('',#754,#585,#586);
#507=AXIS2_PLACEMENT_3D('',#758,#588,#589);
#508=AXIS2_PLACEMENT_3D('',#759,#590,#591);
#509=AXIS2_PLACEMENT_3D('',#760,#592,#593);
#510=AXIS2_PLACEMENT_3D('',#765,#595,#596);
#511=AXIS2_PLACEMENT_3D('',#769,#598,#599);
#512=AXIS2_PLACEMENT_3D('',#773,#601,#602);
#513=AXIS2_PLACEMENT_3D('',#776,#604,#605);
#514=AXIS2_PLACEMENT_3D('',#778,#606,#607);
#515=AXIS2_PLACEMENT_3D('',#779,#608,#609);
#516=AXIS2_PLACEMENT_3D('',#781,#610,#611);
#517=AXIS2_PLACEMENT_3D('',#782,#612,#613);
#518=AXIS2_PLACEMENT_3D('',#783,#614,#615);
#519=AXIS2_PLACEMENT_3D('',#788,#617,#618);
#520=AXIS2_PLACEMENT_3D('',#792,#620,#621);
#521=AXIS2_PLACEMENT_3D('',#796,#623,#624);
#522=AXIS2_PLACEMENT_3D('',#799,#626,#627);
#523=AXIS2_PLACEMENT_3D('',#801,#628,#629);
#524=AXIS2_PLACEMENT_3D('',#803,#630,#631);
#525=AXIS2_PLACEMENT_3D('',#805,#632,#633);
#526=AXIS2_PLACEMENT_3D('',#806,#634,#635);
#527=AXIS2_PLACEMENT_3D('',#808,#637,#638);
#528=AXIS2_PLACEMENT_3D('',#810,#639,#640);
#529=AXIS2_PLACEMENT_3D('',#813,#642,#643);
#530=AXIS2_PLACEMENT_3D('',#814,#644,#645);
#531=AXIS2_PLACEMENT_3D('',#816,#646,#647);
#532=AXIS2_PLACEMENT_3D('',#817,#648,#649);
#533=AXIS2_PLACEMENT_3D('',#818,#650,#651);
#534=AXIS2_PLACEMENT_3D('',#820,#652,#653);
#535=AXIS2_PLACEMENT_3D('',#822,#655,#656);
#536=AXIS2_PLACEMENT_3D('',#824,#657,#658);
#537=AXIS2_PLACEMENT_3D('',#825,#659,#660);
#538=AXIS2_PLACEMENT_3D('',#826,#661,#662);
#539=AXIS2_PLACEMENT_3D('',#828,#663,#664);
#540=AXIS2_PLACEMENT_3D('',#830,#666,#667);
#541=AXIS2_PLACEMENT_3D('',#832,#668,#669);
#542=AXIS2_PLACEMENT_3D('',#833,#670,#671);
#543=AXIS2_PLACEMENT_3D('',#834,#672,#673);
#544=AXIS2_PLACEMENT_3D('',#836,#674,#675);
#545=AXIS2_PLACEMENT_3D('',#838,#677,#678);
#546=AXIS2_PLACEMENT_3D('',#839,#679,#680);
#547=AXIS2_PLACEMENT_3D('',#840,#681,#682);
#548=AXIS2_PLACEMENT_3D('',#843,#685,#686);
#549=AXIS2_PLACEMENT_3D('',#845,#688,#689);
#550=AXIS2_PLACEMENT_3D('',#847,#691,#692);
#551=AXIS2_PLACEMENT_3D('',#849,#694,#695);
#552=AXIS2_PLACEMENT_3D('',#851,#696,#697);
#553=AXIS2_PLACEMENT_3D('',#854,#699,#700);
#554=AXIS2_PLACEMENT_3D('',#855,#701,#702);
#555=AXIS2_PLACEMENT_3D('',#859,#704,#705);
#556=AXIS2_PLACEMENT_3D('',#860,#706,#707);
#557=AXIS2_PLACEMENT_3D('',#861,#708,#709);
#558=AXIS2_PLACEMENT_3D('',#862,#710,#711);
#559=AXIS2_PLACEMENT_3D('',#864,#712,#713);
#560=AXIS2_PLACEMENT_3D('',#867,#715,#716);
#561=AXIS2_PLACEMENT_3D('',#868,#717,#718);
#562=AXIS2_PLACEMENT_3D('',#872,#720,#721);
#563=AXIS2_PLACEMENT_3D('',#873,#722,#723);
#564=AXIS2_PLACEMENT_3D('',#874,#724,#725);
#565=AXIS2_PLACEMENT_3D('',#875,#726,#727);
#566=AXIS2_PLACEMENT_3D('',#876,#728,#729);
#567=AXIS2_PLACEMENT_3D('',#877,#730,#731);
#568=AXIS2_PLACEMENT_3D('',#878,#732,#733);
#569=AXIS2_PLACEMENT_3D('',#879,#734,#735);
#570=AXIS2_PLACEMENT_3D('',#881,#737,#738);
#571=AXIS2_PLACEMENT_3D('',#883,#740,#741);
#572=AXIS2_PLACEMENT_3D('',#885,#743,#744);
#573=DIRECTION('axis',(0.,0.,1.));
#574=DIRECTION('refdir',(1.,0.,0.));
#575=DIRECTION('center_axis',(0.,-1.,0.));
#576=DIRECTION('ref_axis',(0.,0.,-1.));
#577=DIRECTION('center_axis',(0.,1.,0.));
#578=DIRECTION('ref_axis',(-1.,0.,0.));
#579=DIRECTION('center_axis',(-1.,0.,-1.22464679914735E-16));
#580=DIRECTION('ref_axis',(-1.22464679914735E-16,0.,1.));
#581=DIRECTION('center_axis',(0.,-1.,0.));
#582=DIRECTION('ref_axis',(-1.,0.,0.));
#583=DIRECTION('center_axis',(0.,-1.,0.));
#584=DIRECTION('ref_axis',(-1.,0.,0.));
#585=DIRECTION('center_axis',(0.,-1.,0.));
#586=DIRECTION('ref_axis',(-1.,0.,1.12443777369992E-24));
#587=DIRECTION('',(0.,-1.,0.));
#588=DIRECTION('center_axis',(0.,1.,0.));
#589=DIRECTION('ref_axis',(-1.,0.,0.));
#590=DIRECTION('center_axis',(0.,1.,0.));
#591=DIRECTION('ref_axis',(-1.,0.,0.));
#592=DIRECTION('center_axis',(0.,1.,0.));
#593=DIRECTION('ref_axis',(-1.,0.,7.48031748519093E-23));
#594=DIRECTION('',(2.26768965701626E-15,0.,1.));
#595=DIRECTION('center_axis',(0.,-1.,0.));
#596=DIRECTION('ref_axis',(0.707106781186546,0.,-0.70710678118655));
#597=DIRECTION('',(1.,0.,-2.331468426516E-15));
#598=DIRECTION('center_axis',(0.,-1.,0.));
#599=DIRECTION('ref_axis',(-0.707106781186549,0.,-0.707106781186546));
#600=DIRECTION('',(-2.45666378886735E-15,0.,-1.));
#601=DIRECTION('center_axis',(0.,-1.,0.));
#602=DIRECTION('ref_axis',(-0.707106781186546,0.,0.707106781186549));
#603=DIRECTION('',(-1.,0.,2.22044612405349E-15));
#604=DIRECTION('center_axis',(0.,-1.,0.));
#605=DIRECTION('ref_axis',(0.707106781186548,0.,0.707106781186547));
#606=DIRECTION('center_axis',(0.,-1.,0.));
#607=DIRECTION('ref_axis',(1.,0.,0.));
#608=DIRECTION('center_axis',(0.,1.,0.));
#609=DIRECTION('ref_axis',(0.,0.,1.));
#610=DIRECTION('center_axis',(0.,-1.,0.));
#611=DIRECTION('ref_axis',(-1.,0.,0.));
#612=DIRECTION('center_axis',(-1.,0.,1.22464679914735E-16));
#613=DIRECTION('ref_axis',(-1.22464679914735E-16,0.,-1.));
#614=DIRECTION('center_axis',(0.,1.,0.));
#615=DIRECTION('ref_axis',(-1.,0.,7.48031748519093E-23));
#616=DIRECTION('',(2.45666378886735E-15,0.,1.));
#617=DIRECTION('center_axis',(0.,1.,0.));
#618=DIRECTION('ref_axis',(-2.66453533390355E-15,0.,-1.));
#619=DIRECTION('',(-1.,0.,2.331468426516E-15));
#620=DIRECTION('center_axis',(0.,1.,0.));
#621=DIRECTION('ref_axis',(1.,0.,-5.32907059300392E-15));
#622=DIRECTION('',(-2.26768965701626E-15,0.,-1.));
#623=DIRECTION('center_axis',(0.,1.,0.));
#624=DIRECTION('ref_axis',(7.48031748519093E-23,0.,1.));
#625=DIRECTION('',(1.,0.,-2.22044612405349E-15));
#626=DIRECTION('center_axis',(0.,1.,0.));
#627=DIRECTION('ref_axis',(-1.,0.,1.77635691420342E-15));
#628=DIRECTION('center_axis',(0.,-1.,0.));
#629=DIRECTION('ref_axis',(1.,0.,0.));
#630=DIRECTION('center_axis',(0.,-1.,0.));
#631=DIRECTION('ref_axis',(1.,0.,0.));
#632=DIRECTION('center_axis',(0.,1.,0.));
#633=DIRECTION('ref_axis',(1.,0.,0.));
#634=DIRECTION('center_axis',(0.,1.,0.));
#635=DIRECTION('ref_axis',(1.,0.,0.));
#636=DIRECTION('',(0.,1.,0.));
#637=DIRECTION('center_axis',(-2.26768965701626E-15,0.,-1.));
#638=DIRECTION('ref_axis',(0.707106781186544,0.707106781186551,0.));
#639=DIRECTION('center_axis',(0.,0.,-1.));
#640=DIRECTION('ref_axis',(0.,1.,0.));
#641=DIRECTION('',(-2.26768965701626E-15,0.,-1.));
#642=DIRECTION('center_axis',(0.,0.,1.));
#643=DIRECTION('ref_axis',(1.,0.,0.));
#644=DIRECTION('center_axis',(0.,1.,0.));
#645=DIRECTION('ref_axis',(0.,0.,1.));
#646=DIRECTION('center_axis',(1.,0.,2.22044604925033E-15));
#647=DIRECTION('ref_axis',(2.22044604925033E-15,0.,-1.));
#648=DIRECTION('center_axis',(0.,1.,0.));
#649=DIRECTION('ref_axis',(0.707106781186546,0.,-0.70710678118655));
#650=DIRECTION('center_axis',(-1.,0.,2.331468426516E-15));
#651=DIRECTION('ref_axis',(-1.57009245868377E-15,0.707106781186548,-0.707106781186548));
#652=DIRECTION('center_axis',(1.,0.,0.));
#653=DIRECTION('ref_axis',(0.,0.,-1.));
#654=DIRECTION('',(-1.,0.,2.331468426516E-15));
#655=DIRECTION('center_axis',(0.,1.,0.));
#656=DIRECTION('ref_axis',(0.,0.,1.));
#657=DIRECTION('center_axis',(0.,0.,-1.));
#658=DIRECTION('ref_axis',(-1.,0.,0.));
#659=DIRECTION('center_axis',(0.,1.,0.));
#660=DIRECTION('ref_axis',(-0.707106781186549,0.,-0.707106781186546));
#661=DIRECTION('center_axis',(2.45666378886735E-15,0.,1.));
#662=DIRECTION('ref_axis',(-0.707106781186544,0.707106781186551,6.2803698347351E-15));
#663=DIRECTION('center_axis',(0.,0.,-1.));
#664=DIRECTION('ref_axis',(-1.,0.,0.));
#665=DIRECTION('',(2.45666378886735E-15,0.,1.));
#666=DIRECTION('center_axis',(0.,1.,0.));
#667=DIRECTION('ref_axis',(0.,0.,1.));
#668=DIRECTION('center_axis',(-1.,0.,2.22044604925032E-15));
#669=DIRECTION('ref_axis',(2.22044604925032E-15,0.,1.));
#670=DIRECTION('center_axis',(0.,1.,0.));
#671=DIRECTION('ref_axis',(-0.707106781186546,0.,0.707106781186549));
#672=DIRECTION('center_axis',(1.,0.,-2.22044612405349E-15));
#673=DIRECTION('ref_axis',(1.57009245868377E-15,0.707106781186551,0.707106781186544));
#674=DIRECTION('center_axis',(-1.,0.,4.44089209850064E-15));
#675=DIRECTION('ref_axis',(4.44089209850064E-15,0.,1.));
#676=DIRECTION('',(1.,0.,-2.22044612405349E-15));
#677=DIRECTION('center_axis',(0.,1.,0.));
#678=DIRECTION('ref_axis',(0.,0.,1.));
#679=DIRECTION('center_axis',(0.,1.,0.));
#680=DIRECTION('ref_axis',(0.707106781186548,0.,0.707106781186547));
#681=DIRECTION('center_axis',(0.,1.,0.));
#682=DIRECTION('ref_axis',(-2.66453533390355E-15,0.,-1.));
#683=DIRECTION('',(0.,1.,0.));
#684=DIRECTION('',(0.,1.,0.));
#685=DIRECTION('center_axis',(-2.331468426516E-15,0.,-1.));
#686=DIRECTION('ref_axis',(-1.,0.,2.331468426516E-15));
#687=DIRECTION('',(0.,1.,0.));
#688=DIRECTION('center_axis',(0.,1.,0.));
#689=DIRECTION('ref_axis',(1.,0.,-5.32907059300392E-15));
#690=DIRECTION('',(0.,1.,0.));
#691=DIRECTION('center_axis',(1.,0.,-2.26768965701626E-15));
#692=DIRECTION('ref_axis',(-2.26768965701626E-15,0.,-1.));
#693=DIRECTION('',(0.,1.,0.));
#694=DIRECTION('center_axis',(0.,1.,0.));
#695=DIRECTION('ref_axis',(1.,0.,0.));
#696=DIRECTION('center_axis',(0.,1.,0.));
#697=DIRECTION('ref_axis',(1.,0.,0.));
#698=DIRECTION('',(-0.707106781186549,0.707106781186546,-8.65956056235495E-17));
#699=DIRECTION('center_axis',(0.,-1.,0.));
#700=DIRECTION('ref_axis',(1.,0.,0.));
#701=DIRECTION('center_axis',(0.,-1.,0.));
#702=DIRECTION('ref_axis',(1.,0.,0.));
#703=DIRECTION('',(0.,1.,0.));
#704=DIRECTION('center_axis',(0.,1.,0.));
#705=DIRECTION('ref_axis',(1.,0.,0.));
#706=DIRECTION('center_axis',(0.,1.,0.));
#707=DIRECTION('ref_axis',(1.,0.,0.));
#708=DIRECTION('center_axis',(0.,-1.,0.));
#709=DIRECTION('ref_axis',(1.,0.,0.));
#710=DIRECTION('center_axis',(0.,1.,0.));
#711=DIRECTION('ref_axis',(1.,0.,0.));
#712=DIRECTION('center_axis',(0.,1.,0.));
#713=DIRECTION('ref_axis',(1.,0.,0.));
#714=DIRECTION('',(-0.707106781186549,0.707106781186546,-8.65956056235495E-17));
#715=DIRECTION('center_axis',(0.,-1.,0.));
#716=DIRECTION('ref_axis',(1.,0.,0.));
#717=DIRECTION('center_axis',(0.,-1.,0.));
#718=DIRECTION('ref_axis',(1.,0.,0.));
#719=DIRECTION('',(0.,1.,0.));
#720=DIRECTION('center_axis',(0.,1.,0.));
#721=DIRECTION('ref_axis',(1.,0.,0.));
#722=DIRECTION('center_axis',(0.,1.,0.));
#723=DIRECTION('ref_axis',(1.,0.,0.));
#724=DIRECTION('center_axis',(0.,-1.,0.));
#725=DIRECTION('ref_axis',(1.,0.,0.));
#726=DIRECTION('center_axis',(0.,1.,0.));
#727=DIRECTION('ref_axis',(0.,0.,1.));
#728=DIRECTION('center_axis',(-1.,0.,0.));
#729=DIRECTION('ref_axis',(0.,0.,-1.));
#730=DIRECTION('center_axis',(0.,1.,0.));
#731=DIRECTION('ref_axis',(0.,0.,1.));
#732=DIRECTION('center_axis',(-1.,0.,0.));
#733=DIRECTION('ref_axis',(0.,0.,-1.));
#734=DIRECTION('center_axis',(0.,1.,0.));
#735=DIRECTION('ref_axis',(7.48031748519093E-23,0.,1.));
#736=DIRECTION('',(0.,1.,0.));
#737=DIRECTION('center_axis',(2.22044612405349E-15,0.,1.));
#738=DIRECTION('ref_axis',(1.,0.,-2.22044612405349E-15));
#739=DIRECTION('',(0.,1.,0.));
#740=DIRECTION('center_axis',(0.,1.,0.));
#741=DIRECTION('ref_axis',(-1.,0.,1.77635691420342E-15));
#742=DIRECTION('',(0.,1.,0.));
#743=DIRECTION('center_axis',(-1.,0.,2.45666378886735E-15));
#744=DIRECTION('ref_axis',(2.45666378886735E-15,0.,1.));
#745=CARTESIAN_POINT('',(0.,0.,0.));
#746=CARTESIAN_POINT('Origin',(-4.17553615800777E-14,35.,33.));
#747=CARTESIAN_POINT('',(-4.26126143394808E-14,35.5,40.));
#748=CARTESIAN_POINT('Origin',(-4.17553615800777E-14,35.5,33.));
#749=CARTESIAN_POINT('',(-4.25513819995235E-14,35.,39.5));
#750=CARTESIAN_POINT('Origin',(-4.26126143394808E-14,35.,40.));
#751=CARTESIAN_POINT('',(6.49999999999996,35.,33.));
#752=CARTESIAN_POINT('Origin',(-4.17553615800777E-14,35.,33.));
#753=CARTESIAN_POINT('Origin',(-4.17553615800777E-14,35.,33.));
#754=CARTESIAN_POINT('Origin',(-4.17553615800777E-14,35.5,33.));
#755=CARTESIAN_POINT('',(6.49999999999996,33.,33.));
#756=CARTESIAN_POINT('',(6.49999999999996,35.5,33.));
#757=CARTESIAN_POINT('',(-4.25513819995235E-14,33.,26.5));
#758=CARTESIAN_POINT('Origin',(-4.17553615800777E-14,33.,33.));
#759=CARTESIAN_POINT('Origin',(-4.17553615800777E-14,33.,33.));
#760=CARTESIAN_POINT('Origin',(2.13189049449366E-21,35.5,50.5));
#761=CARTESIAN_POINT('',(23.9999999999999,35.5,26.9999999999999));
#762=CARTESIAN_POINT('',(24.,35.5,73.9999999999999));
#763=CARTESIAN_POINT('',(24.,35.5,62.2499999999999));
#764=CARTESIAN_POINT('',(19.9999999999999,35.5,22.9999999999999));
#765=CARTESIAN_POINT('Origin',(19.9999999999999,35.5,26.9999999999999));
#766=CARTESIAN_POINT('',(-20.0000000000001,35.5,23.));
#767=CARTESIAN_POINT('',(9.99999999999993,35.5,23.));
#768=CARTESIAN_POINT('',(-24.0000000000001,35.5,27.));
#769=CARTESIAN_POINT('Origin',(-20.0000000000001,35.5,27.));
#770=CARTESIAN_POINT('',(-23.9999999999999,35.5,74.));
#771=CARTESIAN_POINT('',(-24.,35.5,38.75));
#772=CARTESIAN_POINT('',(-19.9999999999999,35.5,78.));
#773=CARTESIAN_POINT('Origin',(-19.9999999999999,35.5,74.));
#774=CARTESIAN_POINT('',(20.0000000000001,35.5,78.));
#775=CARTESIAN_POINT('',(-9.99999999999994,35.5,78.));
#776=CARTESIAN_POINT('Origin',(20.0000000000001,35.5,74.));
#777=CARTESIAN_POINT('',(20.4999999999999,35.5,25.5999999999999));
#778=CARTESIAN_POINT('Origin',(21.4999999999999,35.5,25.5999999999999));
#779=CARTESIAN_POINT('Origin',(-4.17553615800777E-14,33.,33.));
#780=CARTESIAN_POINT('',(-4.26126143394808E-14,32.5,26.));
#781=CARTESIAN_POINT('Origin',(-4.17553615800777E-14,32.5,33.));
#782=CARTESIAN_POINT('Origin',(-4.26126143394808E-14,33.,26.));
#783=CARTESIAN_POINT('Origin',(2.13189049449366E-21,32.5,50.5));
#784=CARTESIAN_POINT('',(-25.0000000000001,32.5,27.));
#785=CARTESIAN_POINT('',(-24.9999999999999,32.5,74.));
#786=CARTESIAN_POINT('',(-25.0000000000001,32.5,27.));
#787=CARTESIAN_POINT('',(-20.0000000000001,32.5,22.));
#788=CARTESIAN_POINT('Origin',(-20.0000000000001,32.5,27.));
#789=CARTESIAN_POINT('',(19.9999999999999,32.5,21.9999999999999));
#790=CARTESIAN_POINT('',(19.9999999999999,32.5,21.9999999999999));
#791=CARTESIAN_POINT('',(24.9999999999999,32.5,26.9999999999999));
#792=CARTESIAN_POINT('Origin',(19.9999999999999,32.5,26.9999999999999));
#793=CARTESIAN_POINT('',(25.,32.5,73.9999999999999));
#794=CARTESIAN_POINT('',(25.,32.5,73.9999999999999));
#795=CARTESIAN_POINT('',(20.0000000000001,32.5,78.9999999999999));
#796=CARTESIAN_POINT('Origin',(20.0000000000001,32.5,74.));
#797=CARTESIAN_POINT('',(-19.9999999999999,32.5,79.));
#798=CARTESIAN_POINT('',(-19.9999999999999,32.5,79.));
#799=CARTESIAN_POINT('Origin',(-19.9999999999999,32.5,74.));
#800=CARTESIAN_POINT('',(-20.4999999999999,32.5,26.8396078054372));
#801=CARTESIAN_POINT('Origin',(-20.4999999999999,32.5,29.0396078054372));
#802=CARTESIAN_POINT('',(-20.4999999999999,32.5,71.8));
#803=CARTESIAN_POINT('Origin',(-20.4999999999999,32.5,74.));
#804=CARTESIAN_POINT('',(20.4999999999999,32.5,25.5999999999999));
#805=CARTESIAN_POINT('Origin',(21.4999999999999,32.5,25.5999999999999));
#806=CARTESIAN_POINT('Origin',(21.4999999999999,32.5,25.5999999999999));
#807=CARTESIAN_POINT('',(20.4999999999999,32.5,25.5999999999999));
#808=CARTESIAN_POINT('Origin',(24.,34.5,62.2499999999999));
#809=CARTESIAN_POINT('',(25.,34.5,73.9999999999999));
#810=CARTESIAN_POINT('Origin',(24.,34.5,73.9999999999999));
#811=CARTESIAN_POINT('',(24.9999999999999,34.5,26.9999999999999));
#812=CARTESIAN_POINT('',(25.,34.5,62.2499999999999));
#813=CARTESIAN_POINT('Origin',(23.9999999999999,34.5,26.9999999999999));
#814=CARTESIAN_POINT('Origin',(19.9999999999999,34.5,26.9999999999999));
#815=CARTESIAN_POINT('',(19.9999999999999,34.5,21.9999999999999));
#816=CARTESIAN_POINT('Origin',(19.9999999999999,34.5,22.9999999999999));
#817=CARTESIAN_POINT('Origin',(19.9999999999999,34.5,26.9999999999999));
#818=CARTESIAN_POINT('Origin',(9.99999999999993,34.5,23.));
#819=CARTESIAN_POINT('',(-20.0000000000001,34.5,22.));
#820=CARTESIAN_POINT('Origin',(-20.0000000000001,34.5,23.));
#821=CARTESIAN_POINT('',(9.99999999999993,34.5,22.));
#822=CARTESIAN_POINT('Origin',(-20.0000000000001,34.5,27.));
#823=CARTESIAN_POINT('',(-25.0000000000001,34.5,27.));
#824=CARTESIAN_POINT('Origin',(-24.0000000000001,34.5,27.));
#825=CARTESIAN_POINT('Origin',(-20.0000000000001,34.5,27.));
#826=CARTESIAN_POINT('Origin',(-24.,34.5,38.75));
#827=CARTESIAN_POINT('',(-24.9999999999999,34.5,74.));
#828=CARTESIAN_POINT('Origin',(-23.9999999999999,34.5,74.));
#829=CARTESIAN_POINT('',(-25.,34.5,38.7500000000001));
#830=CARTESIAN_POINT('Origin',(-19.9999999999999,34.5,74.));
#831=CARTESIAN_POINT('',(-19.9999999999999,34.5,79.));
#832=CARTESIAN_POINT('Origin',(-19.9999999999999,34.5,78.));
#833=CARTESIAN_POINT('Origin',(-19.9999999999999,34.5,74.));
#834=CARTESIAN_POINT('Origin',(-9.99999999999994,34.5,78.));
#835=CARTESIAN_POINT('',(20.0000000000001,34.5,78.9999999999999));
#836=CARTESIAN_POINT('Origin',(20.0000000000001,34.5,78.));
#837=CARTESIAN_POINT('',(-9.99999999999993,34.5,79.));
#838=CARTESIAN_POINT('Origin',(20.0000000000001,34.5,74.));
#839=CARTESIAN_POINT('Origin',(20.0000000000001,34.5,74.));
#840=CARTESIAN_POINT('Origin',(-20.0000000000001,32.5,27.));
#841=CARTESIAN_POINT('',(-20.0000000000001,32.5,22.));
#842=CARTESIAN_POINT('',(-25.0000000000001,32.5,27.));
#843=CARTESIAN_POINT('Origin',(19.9999999999999,32.5,21.9999999999999));
#844=CARTESIAN_POINT('',(19.9999999999999,32.5,21.9999999999999));
#845=CARTESIAN_POINT('Origin',(19.9999999999999,32.5,26.9999999999999));
#846=CARTESIAN_POINT('',(24.9999999999999,32.5,26.9999999999999));
#847=CARTESIAN_POINT('Origin',(25.,32.5,73.9999999999999));
#848=CARTESIAN_POINT('',(25.,32.5,73.9999999999999));
#849=CARTESIAN_POINT('Origin',(-20.4999999999999,24.75,74.));
#850=CARTESIAN_POINT('',(-21.9999999999999,24.5,74.));
#851=CARTESIAN_POINT('Origin',(-20.4999999999999,24.5,74.));
#852=CARTESIAN_POINT('',(-22.4999999999999,25.,74.));
#853=CARTESIAN_POINT('',(-22.2499999999999,24.75,74.));
#854=CARTESIAN_POINT('Origin',(-20.4999999999999,25.,74.));
#855=CARTESIAN_POINT('Origin',(-20.4999999999999,32.5,74.));
#856=CARTESIAN_POINT('',(-22.4999999999999,32.3,74.));
#857=CARTESIAN_POINT('',(-22.4999999999999,32.5,74.));
#858=CARTESIAN_POINT('',(-20.4999999999999,32.3,72.));
#859=CARTESIAN_POINT('Origin',(-20.4999999999999,32.3,74.));
#860=CARTESIAN_POINT('Origin',(-20.4999999999999,32.3,74.));
#861=CARTESIAN_POINT('Origin',(-20.4999999999999,24.5,74.));
#862=CARTESIAN_POINT('Origin',(-20.4999999999999,24.75,29.0396078054372));
#863=CARTESIAN_POINT('',(-21.9999999999999,24.5,29.0396078054372));
#864=CARTESIAN_POINT('Origin',(-20.4999999999999,24.5,29.0396078054372));
#865=CARTESIAN_POINT('',(-22.4999999999999,25.,29.0396078054372));
#866=CARTESIAN_POINT('',(-22.2499999999999,24.75,29.0396078054372));
#867=CARTESIAN_POINT('Origin',(-20.4999999999999,25.,29.0396078054372));
#868=CARTESIAN_POINT('Origin',(-20.4999999999999,32.5,29.0396078054372));
#869=CARTESIAN_POINT('',(-22.4999999999999,32.3,29.0396078054372));
#870=CARTESIAN_POINT('',(-22.4999999999999,32.5,29.0396078054372));
#871=CARTESIAN_POINT('',(-20.4999999999999,32.3,27.0396078054372));
#872=CARTESIAN_POINT('Origin',(-20.4999999999999,32.3,29.0396078054372));
#873=CARTESIAN_POINT('Origin',(-20.4999999999999,32.3,29.0396078054372));
#874=CARTESIAN_POINT('Origin',(-20.4999999999999,24.5,29.0396078054372));
#875=CARTESIAN_POINT('Origin',(-20.4999999999999,32.3,29.0396078054372));
#876=CARTESIAN_POINT('Origin',(-20.4999999999999,32.3,26.8396078054372));
#877=CARTESIAN_POINT('Origin',(-20.4999999999999,32.3,74.));
#878=CARTESIAN_POINT('Origin',(-20.4999999999999,32.3,71.8));
#879=CARTESIAN_POINT('Origin',(20.0000000000001,32.5,74.));
#880=CARTESIAN_POINT('',(20.0000000000001,32.5,78.9999999999999));
#881=CARTESIAN_POINT('Origin',(-19.9999999999999,32.5,79.));
#882=CARTESIAN_POINT('',(-19.9999999999999,32.5,79.));
#883=CARTESIAN_POINT('Origin',(-19.9999999999999,32.5,74.));
#884=CARTESIAN_POINT('',(-24.9999999999999,32.5,74.));
#885=CARTESIAN_POINT('Origin',(-25.0000000000001,32.5,27.));
#886=UNCERTAINTY_MEASURE_WITH_UNIT(LENGTH_MEASURE(0.01),#890,
'DISTANCE_ACCURACY_VALUE',
'Maximum model space distance between geometric entities at asserted c
onnectivities');
#887=UNCERTAINTY_MEASURE_WITH_UNIT(LENGTH_MEASURE(0.01),#890,
'DISTANCE_ACCURACY_VALUE',
'Maximum model space distance between geometric entities at asserted c
onnectivities');
#888=(
GEOMETRIC_REPRESENTATION_CONTEXT(3)
GLOBAL_UNCERTAINTY_ASSIGNED_CONTEXT((#886))
GLOBAL_UNIT_ASSIGNED_CONTEXT((#890,#892,#893))
REPRESENTATION_CONTEXT('','3D')
);
#889=(
GEOMETRIC_REPRESENTATION_CONTEXT(3)
GLOBAL_UNCERTAINTY_ASSIGNED_CONTEXT((#887))
GLOBAL_UNIT_ASSIGNED_CONTEXT((#890,#892,#893))
REPRESENTATION_CONTEXT('','3D')
);
#890=(
LENGTH_UNIT()
NAMED_UNIT(*)
SI_UNIT(.MILLI.,.METRE.)
);
#891=(
LENGTH_UNIT()
NAMED_UNIT(*)
SI_UNIT($,.METRE.)
);
#892=(
NAMED_UNIT(*)
PLANE_ANGLE_UNIT()
SI_UNIT($,.RADIAN.)
);
#893=(
NAMED_UNIT(*)
SI_UNIT($,.STERADIAN.)
SOLID_ANGLE_UNIT()
);
#894=SHAPE_DEFINITION_REPRESENTATION(#895,#896);
#895=PRODUCT_DEFINITION_SHAPE('',$,#898);
#896=SHAPE_REPRESENTATION('',(#500),#888);
#897=PRODUCT_DEFINITION_CONTEXT('part definition',#902,'design');
#898=PRODUCT_DEFINITION('2026-08-14-21-40-39-421','Cover',#899,#897);
#899=PRODUCT_DEFINITION_FORMATION('',$,#904);
#900=PRODUCT_RELATED_PRODUCT_CATEGORY('Cover','Cover',(#904));
#901=APPLICATION_PROTOCOL_DEFINITION('international standard',
'automotive_design',2009,#902);
#902=APPLICATION_CONTEXT(
'Core Data for Automotive Mechanical Design Process');
#903=PRODUCT_CONTEXT('part definition',#902,'mechanical');
#904=PRODUCT('2026-08-14-21-40-39-421','Cover',$,(#903));
#905=PRESENTATION_STYLE_ASSIGNMENT((#907));
#906=PRESENTATION_STYLE_ASSIGNMENT((#908));
#907=SURFACE_STYLE_USAGE(.BOTH.,#909);
#908=SURFACE_STYLE_USAGE(.BOTH.,#910);
#909=SURFACE_SIDE_STYLE('',(#911));
#910=SURFACE_SIDE_STYLE('',(#912));
#911=SURFACE_STYLE_FILL_AREA(#913);
#912=SURFACE_STYLE_FILL_AREA(#914);
#913=FILL_AREA_STYLE('Steel - Satin',(#915));
#914=FILL_AREA_STYLE('Polymide (Kapton)',(#916));
#915=FILL_AREA_STYLE_COLOUR('Steel - Satin',#917);
#916=FILL_AREA_STYLE_COLOUR('Polymide (Kapton)',#918);
#917=COLOUR_RGB('Steel - Satin',0.627450980392157,0.627450980392157,0.627450980392157);
#918=COLOUR_RGB('Polymide (Kapton)',0.784313725490196,0.556862745098039,
0.0274509803921569);
ENDSEC;
END-ISO-10303-21;
